<svg xmlns="http://www.w3.org/2000/svg" xmlns:xlink="http://www.w3.org/1999/xlink" width="500" zoomAndPan="magnify" viewBox="0 0 375 374.999991" height="500" preserveAspectRatio="xMidYMid meet" version="1.0"><defs><g/><clipPath id="631a35fe7f"><path d="M 114 95 L 261 95 L 261 200 L 114 200 Z M 114 95 " clip-rule="nonzero"/></clipPath><clipPath id="e8dd43ad6d"><path d="M 254.683594 172.210938 L 219.78125 197.085938 C 217.292969 198.859375 214.421875 199.714844 211.574219 199.714844 C 207.15625 199.714844 202.804688 197.65625 200.039062 193.789062 C 195.5 187.433594 196.976562 178.605469 203.339844 174.070312 L 209.605469 169.601562 L 211.101562 168.539062 C 213.105469 167.109375 214.183594 164.851562 214.183594 162.554688 C 214.183594 161.1875 213.804688 159.808594 213.011719 158.582031 C 210.738281 155.0625 205.980469 154.15625 202.566406 156.585938 L 151.777344 192.785156 C 149.285156 194.5625 146.414062 195.417969 143.570312 195.417969 C 139.152344 195.417969 134.796875 193.359375 132.035156 189.492188 C 127.492188 183.136719 128.972656 174.308594 135.335938 169.773438 L 143.777344 163.757812 L 146.171875 162.046875 C 149.367188 159.769531 150.207031 155.386719 148.082031 152.09375 C 145.808594 148.574219 141.050781 147.664062 137.636719 150.097656 L 136.929688 150.601562 C 130.566406 155.136719 121.726562 153.660156 117.1875 147.308594 C 112.644531 140.953125 114.121094 132.125 120.484375 127.589844 L 162.46875 97.664062 C 168.832031 93.128906 177.667969 94.605469 182.210938 100.960938 C 186.75 107.3125 185.273438 116.144531 178.910156 120.679688 L 162.023438 132.714844 C 158.589844 135.164062 157.921875 139.988281 160.558594 143.277344 C 162.996094 146.316406 167.386719 146.929688 170.5625 144.664062 L 171.765625 143.804688 L 226.757812 104.609375 C 229.25 102.832031 232.125 101.976562 234.96875 101.976562 C 239.386719 101.976562 243.742188 104.039062 246.503906 107.90625 C 251.042969 114.257812 249.566406 123.085938 243.203125 127.625 L 227.488281 138.824219 L 226.953125 139.203125 C 223.519531 141.652344 222.847656 146.480469 225.488281 149.769531 C 227.925781 152.808594 232.316406 153.417969 235.492188 151.15625 L 236.035156 150.769531 L 238.242188 149.195312 C 244.605469 144.660156 253.445312 146.136719 257.984375 152.492188 C 262.523438 158.84375 261.046875 167.671875 254.683594 172.210938 Z M 254.683594 172.210938 " clip-rule="nonzero"/></clipPath><linearGradient x1="507.583218" gradientTransform="matrix(0.279004, 0, 0, 0.278655, 114.550554, 74.601078)" y1="41.958847" x2="28.388534" gradientUnits="userSpaceOnUse" y2="486.924946" id="80ea2145ef"><stop stop-opacity="1" stop-color="rgb(39.99939%, 81.999207%, 90.59906%)" offset="0"/><stop stop-opacity="1" stop-color="rgb(39.99939%, 81.999207%, 90.59906%)" offset="0.125"/><stop stop-opacity="1" stop-color="rgb(39.94751%, 81.750488%, 90.560913%)" offset="0.128906"/><stop stop-opacity="1" stop-color="rgb(39.89563%, 81.50177%, 90.522766%)" offset="0.132812"/><stop stop-opacity="1" stop-color="rgb(39.820862%, 81.143188%, 90.466309%)" offset="0.136719"/><stop stop-opacity="1" stop-color="rgb(39.746094%, 80.784607%, 90.411377%)" offset="0.140625"/><stop stop-opacity="1" stop-color="rgb(39.671326%, 80.426025%, 90.354919%)" offset="0.144531"/><stop stop-opacity="1" stop-color="rgb(39.598083%, 80.06897%, 90.299988%)" offset="0.148438"/><stop stop-opacity="1" stop-color="rgb(39.523315%, 79.710388%, 90.245056%)" offset="0.152344"/><stop stop-opacity="1" stop-color="rgb(39.448547%, 79.351807%, 90.190125%)" offset="0.15625"/><stop stop-opacity="1" stop-color="rgb(39.373779%, 78.993225%, 90.133667%)" offset="0.160156"/><stop stop-opacity="1" stop-color="rgb(39.300537%, 78.636169%, 90.078735%)" offset="0.164063"/><stop stop-opacity="1" stop-color="rgb(39.225769%, 78.277588%, 90.022278%)" offset="0.167969"/><stop stop-opacity="1" stop-color="rgb(39.151001%, 77.919006%, 89.967346%)" offset="0.171875"/><stop stop-opacity="1" stop-color="rgb(39.076233%, 77.560425%, 89.912415%)" offset="0.175781"/><stop stop-opacity="1" stop-color="rgb(39.001465%, 77.203369%, 89.857483%)" offset="0.179688"/><stop stop-opacity="1" stop-color="rgb(38.926697%, 76.844788%, 89.801025%)" offset="0.183594"/><stop stop-opacity="1" stop-color="rgb(38.853455%, 76.486206%, 89.746094%)" offset="0.1875"/><stop stop-opacity="1" stop-color="rgb(38.778687%, 76.127625%, 89.689636%)" offset="0.191406"/><stop stop-opacity="1" stop-color="rgb(38.703918%, 75.770569%, 89.634705%)" offset="0.195313"/><stop stop-opacity="1" stop-color="rgb(38.62915%, 75.411987%, 89.579773%)" offset="0.199219"/><stop stop-opacity="1" stop-color="rgb(38.555908%, 75.053406%, 89.524841%)" offset="0.203125"/><stop stop-opacity="1" stop-color="rgb(38.48114%, 74.694824%, 89.468384%)" offset="0.207031"/><stop stop-opacity="1" stop-color="rgb(38.406372%, 74.336243%, 89.413452%)" offset="0.210938"/><stop stop-opacity="1" stop-color="rgb(38.331604%, 73.977661%, 89.356995%)" offset="0.214844"/><stop stop-opacity="1" stop-color="rgb(38.256836%, 73.620605%, 89.302063%)" offset="0.21875"/><stop stop-opacity="1" stop-color="rgb(38.182068%, 73.262024%, 89.247131%)" offset="0.222656"/><stop stop-opacity="1" stop-color="rgb(38.108826%, 72.903442%, 89.1922%)" offset="0.226563"/><stop stop-opacity="1" stop-color="rgb(38.034058%, 72.544861%, 89.135742%)" offset="0.230469"/><stop stop-opacity="1" stop-color="rgb(37.95929%, 72.187805%, 89.080811%)" offset="0.234375"/><stop stop-opacity="1" stop-color="rgb(37.884521%, 71.829224%, 89.024353%)" offset="0.238281"/><stop stop-opacity="1" stop-color="rgb(37.811279%, 71.470642%, 88.969421%)" offset="0.242188"/><stop stop-opacity="1" stop-color="rgb(37.736511%, 71.112061%, 88.91449%)" offset="0.246094"/><stop stop-opacity="1" stop-color="rgb(37.661743%, 70.755005%, 88.859558%)" offset="0.25"/><stop stop-opacity="1" stop-color="rgb(37.586975%, 70.396423%, 88.803101%)" offset="0.253906"/><stop stop-opacity="1" stop-color="rgb(37.512207%, 70.037842%, 88.748169%)" offset="0.257812"/><stop stop-opacity="1" stop-color="rgb(37.437439%, 69.67926%, 88.691711%)" offset="0.261719"/><stop stop-opacity="1" stop-color="rgb(37.364197%, 69.322205%, 88.63678%)" offset="0.265625"/><stop stop-opacity="1" stop-color="rgb(37.289429%, 68.963623%, 88.581848%)" offset="0.269531"/><stop stop-opacity="1" stop-color="rgb(37.214661%, 68.605042%, 88.526917%)" offset="0.273438"/><stop stop-opacity="1" stop-color="rgb(37.139893%, 68.24646%, 88.470459%)" offset="0.277344"/><stop stop-opacity="1" stop-color="rgb(37.06665%, 67.889404%, 88.415527%)" offset="0.28125"/><stop stop-opacity="1" stop-color="rgb(36.991882%, 67.530823%, 88.35907%)" offset="0.285156"/><stop stop-opacity="1" stop-color="rgb(36.917114%, 67.172241%, 88.304138%)" offset="0.289063"/><stop stop-opacity="1" stop-color="rgb(36.842346%, 66.81366%, 88.249207%)" offset="0.292969"/><stop stop-opacity="1" stop-color="rgb(36.767578%, 66.456604%, 88.194275%)" offset="0.296875"/><stop stop-opacity="1" stop-color="rgb(36.69281%, 66.098022%, 88.137817%)" offset="0.300781"/><stop stop-opacity="1" stop-color="rgb(36.619568%, 65.739441%, 88.082886%)" offset="0.304688"/><stop stop-opacity="1" stop-color="rgb(36.5448%, 65.380859%, 88.026428%)" offset="0.308594"/><stop stop-opacity="1" stop-color="rgb(36.470032%, 65.023804%, 87.971497%)" offset="0.3125"/><stop stop-opacity="1" stop-color="rgb(36.395264%, 64.665222%, 87.915039%)" offset="0.316406"/><stop stop-opacity="1" stop-color="rgb(36.320496%, 64.306641%, 87.860107%)" offset="0.320312"/><stop stop-opacity="1" stop-color="rgb(36.245728%, 63.948059%, 87.805176%)" offset="0.324219"/><stop stop-opacity="1" stop-color="rgb(36.172485%, 63.591003%, 87.750244%)" offset="0.328125"/><stop stop-opacity="1" stop-color="rgb(36.097717%, 63.232422%, 87.693787%)" offset="0.332031"/><stop stop-opacity="1" stop-color="rgb(36.022949%, 62.87384%, 87.638855%)" offset="0.335937"/><stop stop-opacity="1" stop-color="rgb(35.948181%, 62.515259%, 87.582397%)" offset="0.339844"/><stop stop-opacity="1" stop-color="rgb(35.874939%, 62.158203%, 87.527466%)" offset="0.34375"/><stop stop-opacity="1" stop-color="rgb(35.800171%, 61.799622%, 87.472534%)" offset="0.347656"/><stop stop-opacity="1" stop-color="rgb(35.725403%, 61.44104%, 87.417603%)" offset="0.351563"/><stop stop-opacity="1" stop-color="rgb(35.650635%, 61.082458%, 87.361145%)" offset="0.355469"/><stop stop-opacity="1" stop-color="rgb(35.575867%, 60.725403%, 87.306213%)" offset="0.359375"/><stop stop-opacity="1" stop-color="rgb(35.501099%, 60.366821%, 87.249756%)" offset="0.363281"/><stop stop-opacity="1" stop-color="rgb(35.427856%, 60.00824%, 87.194824%)" offset="0.367188"/><stop stop-opacity="1" stop-color="rgb(35.353088%, 59.649658%, 87.139893%)" offset="0.371094"/><stop stop-opacity="1" stop-color="rgb(35.27832%, 59.292603%, 87.084961%)" offset="0.375"/><stop stop-opacity="1" stop-color="rgb(35.203552%, 58.934021%, 87.028503%)" offset="0.378906"/><stop stop-opacity="1" stop-color="rgb(35.13031%, 58.575439%, 86.973572%)" offset="0.382812"/><stop stop-opacity="1" stop-color="rgb(35.055542%, 58.216858%, 86.917114%)" offset="0.386719"/><stop stop-opacity="1" stop-color="rgb(34.980774%, 57.859802%, 86.862183%)" offset="0.390625"/><stop stop-opacity="1" stop-color="rgb(34.906006%, 57.501221%, 86.807251%)" offset="0.394531"/><stop stop-opacity="1" stop-color="rgb(34.831238%, 57.142639%, 86.752319%)" offset="0.398437"/><stop stop-opacity="1" stop-color="rgb(34.75647%, 56.784058%, 86.695862%)" offset="0.402344"/><stop stop-opacity="1" stop-color="rgb(34.683228%, 56.427002%, 86.64093%)" offset="0.40625"/><stop stop-opacity="1" stop-color="rgb(34.608459%, 56.06842%, 86.584473%)" offset="0.410156"/><stop stop-opacity="1" stop-color="rgb(34.533691%, 55.709839%, 86.529541%)" offset="0.414063"/><stop stop-opacity="1" stop-color="rgb(34.458923%, 55.351257%, 86.474609%)" offset="0.417969"/><stop stop-opacity="1" stop-color="rgb(34.385681%, 54.994202%, 86.419678%)" offset="0.421875"/><stop stop-opacity="1" stop-color="rgb(34.310913%, 54.63562%, 86.36322%)" offset="0.425781"/><stop stop-opacity="1" stop-color="rgb(34.236145%, 54.277039%, 86.308289%)" offset="0.429688"/><stop stop-opacity="1" stop-color="rgb(34.161377%, 53.918457%, 86.251831%)" offset="0.433594"/><stop stop-opacity="1" stop-color="rgb(34.086609%, 53.561401%, 86.196899%)" offset="0.4375"/><stop stop-opacity="1" stop-color="rgb(34.011841%, 53.20282%, 86.141968%)" offset="0.441406"/><stop stop-opacity="1" stop-color="rgb(33.938599%, 52.844238%, 86.087036%)" offset="0.445312"/><stop stop-opacity="1" stop-color="rgb(33.863831%, 52.485657%, 86.030579%)" offset="0.449219"/><stop stop-opacity="1" stop-color="rgb(33.789062%, 52.128601%, 85.975647%)" offset="0.453125"/><stop stop-opacity="1" stop-color="rgb(33.714294%, 51.77002%, 85.919189%)" offset="0.457031"/><stop stop-opacity="1" stop-color="rgb(33.641052%, 51.411438%, 85.864258%)" offset="0.460937"/><stop stop-opacity="1" stop-color="rgb(33.566284%, 51.052856%, 85.809326%)" offset="0.464844"/><stop stop-opacity="1" stop-color="rgb(33.491516%, 50.695801%, 85.754395%)" offset="0.46875"/><stop stop-opacity="1" stop-color="rgb(33.416748%, 50.337219%, 85.697937%)" offset="0.472656"/><stop stop-opacity="1" stop-color="rgb(33.34198%, 49.978638%, 85.643005%)" offset="0.476563"/><stop stop-opacity="1" stop-color="rgb(33.267212%, 49.620056%, 85.586548%)" offset="0.480469"/><stop stop-opacity="1" stop-color="rgb(33.19397%, 49.263%, 85.531616%)" offset="0.484375"/><stop stop-opacity="1" stop-color="rgb(33.119202%, 48.904419%, 85.476685%)" offset="0.488281"/><stop stop-opacity="1" stop-color="rgb(33.044434%, 48.545837%, 85.421753%)" offset="0.492188"/><stop stop-opacity="1" stop-color="rgb(32.969666%, 48.187256%, 85.365295%)" offset="0.496094"/><stop stop-opacity="1" stop-color="rgb(32.896423%, 47.8302%, 85.310364%)" offset="0.5"/><stop stop-opacity="1" stop-color="rgb(32.821655%, 47.471619%, 85.253906%)" offset="0.503906"/><stop stop-opacity="1" stop-color="rgb(32.746887%, 47.113037%, 85.198975%)" offset="0.507812"/><stop stop-opacity="1" stop-color="rgb(32.672119%, 46.754456%, 85.144043%)" offset="0.511719"/><stop stop-opacity="1" stop-color="rgb(32.597351%, 46.3974%, 85.089111%)" offset="0.515625"/><stop stop-opacity="1" stop-color="rgb(32.522583%, 46.038818%, 85.032654%)" offset="0.519531"/><stop stop-opacity="1" stop-color="rgb(32.449341%, 45.680237%, 84.977722%)" offset="0.523438"/><stop stop-opacity="1" stop-color="rgb(32.374573%, 45.321655%, 84.921265%)" offset="0.527344"/><stop stop-opacity="1" stop-color="rgb(32.299805%, 44.9646%, 84.866333%)" offset="0.53125"/><stop stop-opacity="1" stop-color="rgb(32.225037%, 44.606018%, 84.811401%)" offset="0.535156"/><stop stop-opacity="1" stop-color="rgb(32.150269%, 44.247437%, 84.75647%)" offset="0.539062"/><stop stop-opacity="1" stop-color="rgb(32.0755%, 43.888855%, 84.700012%)" offset="0.542969"/><stop stop-opacity="1" stop-color="rgb(32.002258%, 43.531799%, 84.645081%)" offset="0.546875"/><stop stop-opacity="1" stop-color="rgb(31.92749%, 43.173218%, 84.588623%)" offset="0.550781"/><stop stop-opacity="1" stop-color="rgb(31.852722%, 42.814636%, 84.533691%)" offset="0.554688"/><stop stop-opacity="1" stop-color="rgb(31.777954%, 42.456055%, 84.47876%)" offset="0.558594"/><stop stop-opacity="1" stop-color="rgb(31.704712%, 42.098999%, 84.423828%)" offset="0.5625"/><stop stop-opacity="1" stop-color="rgb(31.629944%, 41.740417%, 84.367371%)" offset="0.566406"/><stop stop-opacity="1" stop-color="rgb(31.555176%, 41.381836%, 84.312439%)" offset="0.570312"/><stop stop-opacity="1" stop-color="rgb(31.480408%, 41.023254%, 84.255981%)" offset="0.574219"/><stop stop-opacity="1" stop-color="rgb(31.40564%, 40.666199%, 84.20105%)" offset="0.578125"/><stop stop-opacity="1" stop-color="rgb(31.330872%, 40.307617%, 84.146118%)" offset="0.582031"/><stop stop-opacity="1" stop-color="rgb(31.257629%, 39.949036%, 84.091187%)" offset="0.585938"/><stop stop-opacity="1" stop-color="rgb(31.182861%, 39.590454%, 84.034729%)" offset="0.589844"/><stop stop-opacity="1" stop-color="rgb(31.108093%, 39.233398%, 83.979797%)" offset="0.59375"/><stop stop-opacity="1" stop-color="rgb(31.033325%, 38.874817%, 83.92334%)" offset="0.597656"/><stop stop-opacity="1" stop-color="rgb(30.960083%, 38.516235%, 83.868408%)" offset="0.601562"/><stop stop-opacity="1" stop-color="rgb(30.885315%, 38.157654%, 83.813477%)" offset="0.605469"/><stop stop-opacity="1" stop-color="rgb(30.810547%, 37.799072%, 83.758545%)" offset="0.609375"/><stop stop-opacity="1" stop-color="rgb(30.735779%, 37.440491%, 83.702087%)" offset="0.613281"/><stop stop-opacity="1" stop-color="rgb(30.661011%, 37.083435%, 83.647156%)" offset="0.617188"/><stop stop-opacity="1" stop-color="rgb(30.586243%, 36.724854%, 83.590698%)" offset="0.621094"/><stop stop-opacity="1" stop-color="rgb(30.513%, 36.366272%, 83.535767%)" offset="0.625"/><stop stop-opacity="1" stop-color="rgb(30.438232%, 36.00769%, 83.480835%)" offset="0.628906"/><stop stop-opacity="1" stop-color="rgb(30.363464%, 35.650635%, 83.425903%)" offset="0.632812"/><stop stop-opacity="1" stop-color="rgb(30.288696%, 35.292053%, 83.369446%)" offset="0.636719"/><stop stop-opacity="1" stop-color="rgb(30.215454%, 34.933472%, 83.314514%)" offset="0.640625"/><stop stop-opacity="1" stop-color="rgb(30.140686%, 34.57489%, 83.258057%)" offset="0.644531"/><stop stop-opacity="1" stop-color="rgb(30.065918%, 34.217834%, 83.203125%)" offset="0.648438"/><stop stop-opacity="1" stop-color="rgb(29.99115%, 33.859253%, 83.148193%)" offset="0.652344"/><stop stop-opacity="1" stop-color="rgb(29.916382%, 33.500671%, 83.093262%)" offset="0.65625"/><stop stop-opacity="1" stop-color="rgb(29.841614%, 33.14209%, 83.036804%)" offset="0.660156"/><stop stop-opacity="1" stop-color="rgb(29.768372%, 32.785034%, 82.981873%)" offset="0.664062"/><stop stop-opacity="1" stop-color="rgb(29.693604%, 32.426453%, 82.925415%)" offset="0.667969"/><stop stop-opacity="1" stop-color="rgb(29.618835%, 32.067871%, 82.870483%)" offset="0.671875"/><stop stop-opacity="1" stop-color="rgb(29.544067%, 31.70929%, 82.815552%)" offset="0.675781"/><stop stop-opacity="1" stop-color="rgb(29.470825%, 31.352234%, 82.76062%)" offset="0.679688"/><stop stop-opacity="1" stop-color="rgb(29.396057%, 30.993652%, 82.704163%)" offset="0.683594"/><stop stop-opacity="1" stop-color="rgb(29.321289%, 30.635071%, 82.649231%)" offset="0.6875"/><stop stop-opacity="1" stop-color="rgb(29.246521%, 30.276489%, 82.592773%)" offset="0.691406"/><stop stop-opacity="1" stop-color="rgb(29.171753%, 29.919434%, 82.537842%)" offset="0.695312"/><stop stop-opacity="1" stop-color="rgb(29.096985%, 29.560852%, 82.48291%)" offset="0.699219"/><stop stop-opacity="1" stop-color="rgb(29.023743%, 29.202271%, 82.427979%)" offset="0.703125"/><stop stop-opacity="1" stop-color="rgb(28.948975%, 28.843689%, 82.371521%)" offset="0.707031"/><stop stop-opacity="1" stop-color="rgb(28.874207%, 28.486633%, 82.316589%)" offset="0.710938"/><stop stop-opacity="1" stop-color="rgb(28.799438%, 28.128052%, 82.260132%)" offset="0.714844"/><stop stop-opacity="1" stop-color="rgb(28.726196%, 27.76947%, 82.2052%)" offset="0.71875"/><stop stop-opacity="1" stop-color="rgb(28.651428%, 27.410889%, 82.150269%)" offset="0.722656"/><stop stop-opacity="1" stop-color="rgb(28.57666%, 27.053833%, 82.095337%)" offset="0.726563"/><stop stop-opacity="1" stop-color="rgb(28.501892%, 26.695251%, 82.038879%)" offset="0.730469"/><stop stop-opacity="1" stop-color="rgb(28.427124%, 26.33667%, 81.983948%)" offset="0.734375"/><stop stop-opacity="1" stop-color="rgb(28.352356%, 25.978088%, 81.92749%)" offset="0.738281"/><stop stop-opacity="1" stop-color="rgb(28.279114%, 25.621033%, 81.872559%)" offset="0.742188"/><stop stop-opacity="1" stop-color="rgb(28.204346%, 25.262451%, 81.817627%)" offset="0.746094"/><stop stop-opacity="1" stop-color="rgb(28.129578%, 24.90387%, 81.762695%)" offset="0.75"/><stop stop-opacity="1" stop-color="rgb(28.05481%, 24.545288%, 81.706238%)" offset="0.753906"/><stop stop-opacity="1" stop-color="rgb(27.981567%, 24.188232%, 81.651306%)" offset="0.757813"/><stop stop-opacity="1" stop-color="rgb(27.906799%, 23.829651%, 81.594849%)" offset="0.761719"/><stop stop-opacity="1" stop-color="rgb(27.832031%, 23.471069%, 81.539917%)" offset="0.765625"/><stop stop-opacity="1" stop-color="rgb(27.757263%, 23.112488%, 81.484985%)" offset="0.769531"/><stop stop-opacity="1" stop-color="rgb(27.682495%, 22.755432%, 81.430054%)" offset="0.773438"/><stop stop-opacity="1" stop-color="rgb(27.607727%, 22.396851%, 81.373596%)" offset="0.777344"/><stop stop-opacity="1" stop-color="rgb(27.534485%, 22.038269%, 81.318665%)" offset="0.78125"/><stop stop-opacity="1" stop-color="rgb(27.459717%, 21.679688%, 81.262207%)" offset="0.785156"/><stop stop-opacity="1" stop-color="rgb(27.384949%, 21.322632%, 81.207275%)" offset="0.789062"/><stop stop-opacity="1" stop-color="rgb(27.310181%, 20.96405%, 81.152344%)" offset="0.792969"/><stop stop-opacity="1" stop-color="rgb(27.235413%, 20.605469%, 81.097412%)" offset="0.796875"/><stop stop-opacity="1" stop-color="rgb(27.160645%, 20.246887%, 81.040955%)" offset="0.800781"/><stop stop-opacity="1" stop-color="rgb(27.087402%, 19.889832%, 80.986023%)" offset="0.804688"/><stop stop-opacity="1" stop-color="rgb(27.012634%, 19.53125%, 80.929565%)" offset="0.808594"/><stop stop-opacity="1" stop-color="rgb(26.937866%, 19.172668%, 80.874634%)" offset="0.8125"/><stop stop-opacity="1" stop-color="rgb(26.863098%, 18.814087%, 80.819702%)" offset="0.816406"/><stop stop-opacity="1" stop-color="rgb(26.789856%, 18.457031%, 80.764771%)" offset="0.820312"/><stop stop-opacity="1" stop-color="rgb(26.715088%, 18.09845%, 80.708313%)" offset="0.824219"/><stop stop-opacity="1" stop-color="rgb(26.64032%, 17.739868%, 80.653381%)" offset="0.828125"/><stop stop-opacity="1" stop-color="rgb(26.565552%, 17.381287%, 80.596924%)" offset="0.832031"/><stop stop-opacity="1" stop-color="rgb(26.490784%, 17.024231%, 80.541992%)" offset="0.835938"/><stop stop-opacity="1" stop-color="rgb(26.416016%, 16.665649%, 80.487061%)" offset="0.839844"/><stop stop-opacity="1" stop-color="rgb(26.342773%, 16.307068%, 80.432129%)" offset="0.84375"/><stop stop-opacity="1" stop-color="rgb(26.319885%, 16.203308%, 80.415344%)" offset="0.875"/><stop stop-opacity="1" stop-color="rgb(26.298523%, 16.099548%, 80.39856%)" offset="1"/></linearGradient><clipPath id="ea4856a3f4"><path d="M 167 191 L 198 191 L 198 221 L 167 221 Z M 167 191 " clip-rule="nonzero"/></clipPath><clipPath id="b2b370f0ca"><path d="M 174.664062 194.511719 L 173.78125 195.140625 C 167.417969 199.675781 165.941406 208.503906 170.484375 214.855469 C 175.023438 221.210938 183.863281 222.6875 190.226562 218.152344 L 191.109375 217.523438 C 197.472656 212.988281 198.949219 204.160156 194.40625 197.804688 C 189.867188 191.449219 181.027344 189.976562 174.664062 194.511719 Z M 174.664062 194.511719 " clip-rule="nonzero"/></clipPath><linearGradient x1="304.377818" gradientTransform="matrix(0.279004, 0, 0, 0.278655, 114.550554, 74.601078)" y1="416.06354" x2="182.315082" gradientUnits="userSpaceOnUse" y2="529.407425" id="f25bcd3b9d"><stop stop-opacity="1" stop-color="rgb(30.665588%, 37.101746%, 83.650208%)" offset="0"/><stop stop-opacity="1" stop-color="rgb(30.627441%, 36.91864%, 83.621216%)" offset="0.015625"/><stop stop-opacity="1" stop-color="rgb(30.551147%, 36.553955%, 83.564758%)" offset="0.03125"/><stop stop-opacity="1" stop-color="rgb(30.474854%, 36.187744%, 83.508301%)" offset="0.046875"/><stop stop-opacity="1" stop-color="rgb(30.400085%, 35.823059%, 83.451843%)" offset="0.0625"/><stop stop-opacity="1" stop-color="rgb(30.323792%, 35.458374%, 83.395386%)" offset="0.078125"/><stop stop-opacity="1" stop-color="rgb(30.247498%, 35.093689%, 83.338928%)" offset="0.09375"/><stop stop-opacity="1" stop-color="rgb(30.172729%, 34.729004%, 83.282471%)" offset="0.109375"/><stop stop-opacity="1" stop-color="rgb(30.096436%, 34.364319%, 83.226013%)" offset="0.125"/><stop stop-opacity="1" stop-color="rgb(30.020142%, 33.998108%, 83.169556%)" offset="0.140625"/><stop stop-opacity="1" stop-color="rgb(29.943848%, 33.633423%, 83.113098%)" offset="0.15625"/><stop stop-opacity="1" stop-color="rgb(29.86908%, 33.268738%, 83.056641%)" offset="0.171875"/><stop stop-opacity="1" stop-color="rgb(29.792786%, 32.904053%, 83.000183%)" offset="0.1875"/><stop stop-opacity="1" stop-color="rgb(29.716492%, 32.539368%, 82.943726%)" offset="0.203125"/><stop stop-opacity="1" stop-color="rgb(29.640198%, 32.173157%, 82.887268%)" offset="0.21875"/><stop stop-opacity="1" stop-color="rgb(29.56543%, 31.808472%, 82.830811%)" offset="0.234375"/><stop stop-opacity="1" stop-color="rgb(29.489136%, 31.443787%, 82.774353%)" offset="0.25"/><stop stop-opacity="1" stop-color="rgb(29.412842%, 31.079102%, 82.71637%)" offset="0.265625"/><stop stop-opacity="1" stop-color="rgb(29.338074%, 30.714417%, 82.659912%)" offset="0.28125"/><stop stop-opacity="1" stop-color="rgb(29.26178%, 30.348206%, 82.603455%)" offset="0.296875"/><stop stop-opacity="1" stop-color="rgb(29.185486%, 29.983521%, 82.546997%)" offset="0.3125"/><stop stop-opacity="1" stop-color="rgb(29.109192%, 29.618835%, 82.49054%)" offset="0.328125"/><stop stop-opacity="1" stop-color="rgb(29.034424%, 29.25415%, 82.434082%)" offset="0.34375"/><stop stop-opacity="1" stop-color="rgb(28.95813%, 28.889465%, 82.377625%)" offset="0.359375"/><stop stop-opacity="1" stop-color="rgb(28.881836%, 28.523254%, 82.321167%)" offset="0.375"/><stop stop-opacity="1" stop-color="rgb(28.805542%, 28.158569%, 82.264709%)" offset="0.390625"/><stop stop-opacity="1" stop-color="rgb(28.730774%, 27.793884%, 82.208252%)" offset="0.40625"/><stop stop-opacity="1" stop-color="rgb(28.65448%, 27.429199%, 82.151794%)" offset="0.421875"/><stop stop-opacity="1" stop-color="rgb(28.578186%, 27.064514%, 82.095337%)" offset="0.4375"/><stop stop-opacity="1" stop-color="rgb(28.503418%, 26.698303%, 82.038879%)" offset="0.453125"/><stop stop-opacity="1" stop-color="rgb(28.427124%, 26.333618%, 81.982422%)" offset="0.46875"/><stop stop-opacity="1" stop-color="rgb(28.35083%, 25.968933%, 81.925964%)" offset="0.479562"/><stop stop-opacity="1" stop-color="rgb(28.312683%, 25.787354%, 81.898499%)" offset="0.484375"/><stop stop-opacity="1" stop-color="rgb(28.274536%, 25.604248%, 81.869507%)" offset="0.5"/><stop stop-opacity="1" stop-color="rgb(28.199768%, 25.239563%, 81.813049%)" offset="0.515625"/><stop stop-opacity="1" stop-color="rgb(28.123474%, 24.874878%, 81.756592%)" offset="0.520438"/><stop stop-opacity="1" stop-color="rgb(28.085327%, 24.691772%, 81.729126%)" offset="0.53125"/><stop stop-opacity="1" stop-color="rgb(28.04718%, 24.508667%, 81.700134%)" offset="0.546875"/><stop stop-opacity="1" stop-color="rgb(27.970886%, 24.143982%, 81.643677%)" offset="0.5625"/><stop stop-opacity="1" stop-color="rgb(27.896118%, 23.779297%, 81.587219%)" offset="0.578125"/><stop stop-opacity="1" stop-color="rgb(27.819824%, 23.414612%, 81.530762%)" offset="0.59375"/><stop stop-opacity="1" stop-color="rgb(27.74353%, 23.049927%, 81.474304%)" offset="0.609375"/><stop stop-opacity="1" stop-color="rgb(27.668762%, 22.683716%, 81.417847%)" offset="0.625"/><stop stop-opacity="1" stop-color="rgb(27.592468%, 22.319031%, 81.361389%)" offset="0.640625"/><stop stop-opacity="1" stop-color="rgb(27.516174%, 21.954346%, 81.304932%)" offset="0.65625"/><stop stop-opacity="1" stop-color="rgb(27.43988%, 21.589661%, 81.248474%)" offset="0.671875"/><stop stop-opacity="1" stop-color="rgb(27.365112%, 21.224976%, 81.192017%)" offset="0.6875"/><stop stop-opacity="1" stop-color="rgb(27.288818%, 20.858765%, 81.135559%)" offset="0.703125"/><stop stop-opacity="1" stop-color="rgb(27.212524%, 20.49408%, 81.079102%)" offset="0.71875"/><stop stop-opacity="1" stop-color="rgb(27.137756%, 20.129395%, 81.022644%)" offset="0.734375"/><stop stop-opacity="1" stop-color="rgb(27.061462%, 19.764709%, 80.966187%)" offset="0.75"/><stop stop-opacity="1" stop-color="rgb(26.985168%, 19.400024%, 80.909729%)" offset="0.765625"/><stop stop-opacity="1" stop-color="rgb(26.908875%, 19.033813%, 80.853271%)" offset="0.78125"/><stop stop-opacity="1" stop-color="rgb(26.834106%, 18.669128%, 80.796814%)" offset="0.796875"/><stop stop-opacity="1" stop-color="rgb(26.757812%, 18.304443%, 80.740356%)" offset="0.8125"/><stop stop-opacity="1" stop-color="rgb(26.681519%, 17.939758%, 80.683899%)" offset="0.828125"/><stop stop-opacity="1" stop-color="rgb(26.605225%, 17.575073%, 80.627441%)" offset="0.84375"/><stop stop-opacity="1" stop-color="rgb(26.530457%, 17.210388%, 80.570984%)" offset="0.859375"/><stop stop-opacity="1" stop-color="rgb(26.454163%, 16.844177%, 80.514526%)" offset="0.875"/><stop stop-opacity="1" stop-color="rgb(26.377869%, 16.479492%, 80.458069%)" offset="0.890625"/><stop stop-opacity="1" stop-color="rgb(26.319885%, 16.19873%, 80.413818%)" offset="0.90625"/><stop stop-opacity="1" stop-color="rgb(26.298523%, 16.099548%, 80.39856%)" offset="0.9375"/><stop stop-opacity="1" stop-color="rgb(26.298523%, 16.099548%, 80.39856%)" offset="1"/></linearGradient><clipPath id="a120ace860"><path d="M 185 74 L 214 74 L 214 103 L 185 103 Z M 185 74 " clip-rule="nonzero"/></clipPath><clipPath id="59974afb20"><path d="M 207.578125 100.246094 C 213.941406 95.710938 215.417969 86.882812 210.878906 80.527344 C 206.335938 74.171875 197.496094 72.695312 191.132812 77.230469 C 184.769531 81.765625 183.292969 90.59375 187.835938 96.949219 C 192.375 103.304688 201.214844 104.78125 207.578125 100.246094 Z M 207.578125 100.246094 " clip-rule="nonzero"/></clipPath><linearGradient x1="363.561051" gradientTransform="matrix(0.279004, 0, 0, 0.278655, 114.550554, 74.601078)" y1="-4.610541" x2="244.339147" gradientUnits="userSpaceOnUse" y2="106.095417" id="1e445704b6"><stop stop-opacity="1" stop-color="rgb(39.99939%, 81.999207%, 90.59906%)" offset="0"/><stop stop-opacity="1" stop-color="rgb(39.988708%, 81.948853%, 90.591431%)" offset="0.0625"/><stop stop-opacity="1" stop-color="rgb(39.941406%, 81.719971%, 90.556335%)" offset="0.078125"/><stop stop-opacity="1" stop-color="rgb(39.866638%, 81.362915%, 90.501404%)" offset="0.09375"/><stop stop-opacity="1" stop-color="rgb(39.79187%, 81.007385%, 90.444946%)" offset="0.109375"/><stop stop-opacity="1" stop-color="rgb(39.718628%, 80.65033%, 90.390015%)" offset="0.125"/><stop stop-opacity="1" stop-color="rgb(39.64386%, 80.293274%, 90.335083%)" offset="0.140625"/><stop stop-opacity="1" stop-color="rgb(39.570618%, 79.937744%, 90.280151%)" offset="0.15625"/><stop stop-opacity="1" stop-color="rgb(39.49585%, 79.580688%, 90.22522%)" offset="0.171875"/><stop stop-opacity="1" stop-color="rgb(39.422607%, 79.223633%, 90.170288%)" offset="0.1875"/><stop stop-opacity="1" stop-color="rgb(39.347839%, 78.868103%, 90.113831%)" offset="0.203125"/><stop stop-opacity="1" stop-color="rgb(39.273071%, 78.511047%, 90.058899%)" offset="0.21875"/><stop stop-opacity="1" stop-color="rgb(39.199829%, 78.155518%, 90.003967%)" offset="0.234375"/><stop stop-opacity="1" stop-color="rgb(39.125061%, 77.798462%, 89.949036%)" offset="0.25"/><stop stop-opacity="1" stop-color="rgb(39.051819%, 77.441406%, 89.894104%)" offset="0.265625"/><stop stop-opacity="1" stop-color="rgb(38.977051%, 77.085876%, 89.839172%)" offset="0.28125"/><stop stop-opacity="1" stop-color="rgb(38.903809%, 76.728821%, 89.782715%)" offset="0.296875"/><stop stop-opacity="1" stop-color="rgb(38.829041%, 76.371765%, 89.727783%)" offset="0.3125"/><stop stop-opacity="1" stop-color="rgb(38.754272%, 76.016235%, 89.672852%)" offset="0.328125"/><stop stop-opacity="1" stop-color="rgb(38.68103%, 75.65918%, 89.61792%)" offset="0.34375"/><stop stop-opacity="1" stop-color="rgb(38.606262%, 75.30365%, 89.562988%)" offset="0.359375"/><stop stop-opacity="1" stop-color="rgb(38.53302%, 74.946594%, 89.508057%)" offset="0.375"/><stop stop-opacity="1" stop-color="rgb(38.458252%, 74.589539%, 89.451599%)" offset="0.390625"/><stop stop-opacity="1" stop-color="rgb(38.38501%, 74.234009%, 89.396667%)" offset="0.40625"/><stop stop-opacity="1" stop-color="rgb(38.310242%, 73.876953%, 89.341736%)" offset="0.421875"/><stop stop-opacity="1" stop-color="rgb(38.235474%, 73.519897%, 89.286804%)" offset="0.4375"/><stop stop-opacity="1" stop-color="rgb(38.162231%, 73.164368%, 89.231873%)" offset="0.453125"/><stop stop-opacity="1" stop-color="rgb(38.087463%, 72.807312%, 89.176941%)" offset="0.46875"/><stop stop-opacity="1" stop-color="rgb(38.014221%, 72.451782%, 89.122009%)" offset="0.481408"/><stop stop-opacity="1" stop-color="rgb(37.9776%, 72.273254%, 89.094543%)" offset="0.484375"/><stop stop-opacity="1" stop-color="rgb(37.939453%, 72.094727%, 89.065552%)" offset="0.5"/><stop stop-opacity="1" stop-color="rgb(37.866211%, 71.737671%, 89.01062%)" offset="0.515625"/><stop stop-opacity="1" stop-color="rgb(37.791443%, 71.382141%, 88.955688%)" offset="0.518592"/><stop stop-opacity="1" stop-color="rgb(37.754822%, 71.203613%, 88.928223%)" offset="0.53125"/><stop stop-opacity="1" stop-color="rgb(37.718201%, 71.025085%, 88.900757%)" offset="0.546875"/><stop stop-opacity="1" stop-color="rgb(37.643433%, 70.66803%, 88.845825%)" offset="0.5625"/><stop stop-opacity="1" stop-color="rgb(37.568665%, 70.3125%, 88.790894%)" offset="0.578125"/><stop stop-opacity="1" stop-color="rgb(37.495422%, 69.955444%, 88.734436%)" offset="0.59375"/><stop stop-opacity="1" stop-color="rgb(37.420654%, 69.599915%, 88.679504%)" offset="0.609375"/><stop stop-opacity="1" stop-color="rgb(37.347412%, 69.242859%, 88.624573%)" offset="0.625"/><stop stop-opacity="1" stop-color="rgb(37.272644%, 68.885803%, 88.569641%)" offset="0.640625"/><stop stop-opacity="1" stop-color="rgb(37.199402%, 68.530273%, 88.514709%)" offset="0.65625"/><stop stop-opacity="1" stop-color="rgb(37.124634%, 68.173218%, 88.459778%)" offset="0.671875"/><stop stop-opacity="1" stop-color="rgb(37.049866%, 67.816162%, 88.40332%)" offset="0.6875"/><stop stop-opacity="1" stop-color="rgb(36.976624%, 67.460632%, 88.348389%)" offset="0.703125"/><stop stop-opacity="1" stop-color="rgb(36.901855%, 67.103577%, 88.293457%)" offset="0.71875"/><stop stop-opacity="1" stop-color="rgb(36.828613%, 66.748047%, 88.238525%)" offset="0.734375"/><stop stop-opacity="1" stop-color="rgb(36.753845%, 66.390991%, 88.183594%)" offset="0.75"/><stop stop-opacity="1" stop-color="rgb(36.680603%, 66.033936%, 88.128662%)" offset="0.765625"/><stop stop-opacity="1" stop-color="rgb(36.605835%, 65.678406%, 88.072205%)" offset="0.78125"/><stop stop-opacity="1" stop-color="rgb(36.531067%, 65.32135%, 88.017273%)" offset="0.796875"/><stop stop-opacity="1" stop-color="rgb(36.457825%, 64.964294%, 87.962341%)" offset="0.8125"/><stop stop-opacity="1" stop-color="rgb(36.383057%, 64.608765%, 87.90741%)" offset="0.828125"/><stop stop-opacity="1" stop-color="rgb(36.309814%, 64.251709%, 87.852478%)" offset="0.84375"/><stop stop-opacity="1" stop-color="rgb(36.235046%, 63.896179%, 87.797546%)" offset="0.859375"/><stop stop-opacity="1" stop-color="rgb(36.161804%, 63.539124%, 87.742615%)" offset="0.875"/><stop stop-opacity="1" stop-color="rgb(36.087036%, 63.182068%, 87.686157%)" offset="0.890625"/><stop stop-opacity="1" stop-color="rgb(36.012268%, 62.826538%, 87.631226%)" offset="0.90625"/><stop stop-opacity="1" stop-color="rgb(35.939026%, 62.469482%, 87.576294%)" offset="0.921875"/><stop stop-opacity="1" stop-color="rgb(35.864258%, 62.112427%, 87.521362%)" offset="0.9375"/><stop stop-opacity="1" stop-color="rgb(35.791016%, 61.756897%, 87.466431%)" offset="0.953125"/><stop stop-opacity="1" stop-color="rgb(35.716248%, 61.399841%, 87.411499%)" offset="0.96875"/><stop stop-opacity="1" stop-color="rgb(35.643005%, 61.044312%, 87.355042%)" offset="0.984375"/><stop stop-opacity="1" stop-color="rgb(35.568237%, 60.687256%, 87.30011%)" offset="1"/></linearGradient></defs><rect x="-37.5" width="450" fill="#ffffff" y="-37.499999" height="449.999989" fill-opacity="1"/><rect x="-37.5" width="450" fill="#f4f5f7" y="-37.499999" height="449.999989" fill-opacity="1"/><g clip-path="url(#631a35fe7f)"><g clip-path="url(#e8dd43ad6d)"><path fill="url(#80ea2145ef)" d="M 112.644531 93.128906 L 112.644531 199.714844 L 262.523438 199.714844 L 262.523438 93.128906 Z M 112.644531 93.128906 " fill-rule="nonzero"/></g></g><g clip-path="url(#ea4856a3f4)"><g clip-path="url(#b2b370f0ca)"><path fill="url(#f25bcd3b9d)" d="M 165.941406 189.976562 L 165.941406 222.6875 L 198.949219 222.6875 L 198.949219 189.976562 Z M 165.941406 189.976562 " fill-rule="nonzero"/></g></g><g clip-path="url(#a120ace860)"><g clip-path="url(#59974afb20)"><path fill="url(#1e445704b6)" d="M 183.292969 72.707031 L 183.292969 104.78125 L 215.417969 104.78125 L 215.417969 72.707031 Z M 183.292969 72.707031 " fill-rule="nonzero"/></g></g><g fill="#2c2d2f" fill-opacity="1"><g transform="translate(52.630641, 277.814967)"><g><path d="M 24.90625 -33.703125 L 24.90625 -27.125 L 11.1875 -27.125 L 11.1875 -20.015625 L 21.453125 -20.015625 L 21.453125 -13.625 L 11.1875 -13.625 L 11.1875 0 L 2.96875 0 L 2.96875 -33.703125 Z M 24.90625 -33.703125 "/></g></g></g><g fill="#2c2d2f" fill-opacity="1"><g transform="translate(77.206589, 277.814967)"><g><path d="M 11.1875 -33.703125 L 11.1875 0 L 2.96875 0 L 2.96875 -33.703125 Z M 11.1875 -33.703125 "/></g></g></g><g fill="#2c2d2f" fill-opacity="1"><g transform="translate(89.686568, 277.814967)"><g><path d="M 33.125 0 L 24.90625 0 L 11.1875 -20.78125 L 11.1875 0 L 2.96875 0 L 2.96875 -33.703125 L 11.1875 -33.703125 L 24.90625 -12.8125 L 24.90625 -33.703125 L 33.125 -33.703125 Z M 33.125 0 "/></g></g></g><g fill="#2c2d2f" fill-opacity="1"><g transform="translate(124.102504, 277.814967)"><g><path d="M 27.21875 -33.703125 L 27.21875 -27.125 L 18.28125 -27.125 L 18.28125 0 L 10.078125 0 L 10.078125 -27.125 L 1.15625 -27.125 L 1.15625 -33.703125 Z M 27.21875 -33.703125 "/></g></g></g><g fill="#2c2d2f" fill-opacity="1"><g transform="translate(150.790444, 277.814967)"><g><path d="M 11.1875 -27.125 L 11.1875 -20.296875 L 22.171875 -20.296875 L 22.171875 -13.96875 L 11.1875 -13.96875 L 11.1875 -6.578125 L 23.609375 -6.578125 L 23.609375 0 L 2.96875 0 L 2.96875 -33.703125 L 23.609375 -33.703125 L 23.609375 -27.125 Z M 11.1875 -27.125 "/></g></g></g><g fill="#2c2d2f" fill-opacity="1"><g transform="translate(175.078399, 277.814967)"><g><path d="M 11.1875 -6.34375 L 21.9375 -6.34375 L 21.9375 0 L 2.96875 0 L 2.96875 -33.703125 L 11.1875 -33.703125 Z M 11.1875 -6.34375 "/></g></g></g><g fill="#2c2d2f" fill-opacity="1"><g transform="translate(196.294359, 277.814967)"><g><path d="M 11.1875 -6.34375 L 21.9375 -6.34375 L 21.9375 0 L 2.96875 0 L 2.96875 -33.703125 L 11.1875 -33.703125 Z M 11.1875 -6.34375 "/></g></g></g><g fill="#2c2d2f" fill-opacity="1"><g transform="translate(217.51032, 277.814967)"><g><path d="M 11.1875 -33.703125 L 11.1875 0 L 2.96875 0 L 2.96875 -33.703125 Z M 11.1875 -33.703125 "/></g></g></g><g fill="#2c2d2f" fill-opacity="1"><g transform="translate(229.993915, 277.814967)"><g><path d="M 29.046875 -23.765625 C 28.109375 -25.710938 26.757812 -27.222656 25 -28.296875 C 23.25 -29.367188 21.203125 -29.90625 18.859375 -29.90625 C 16.523438 -29.90625 14.421875 -29.367188 12.546875 -28.296875 C 10.679688 -27.222656 9.210938 -25.6875 8.140625 -23.6875 C 7.066406 -21.6875 6.53125 -19.375 6.53125 -16.75 C 6.53125 -14.125 7.066406 -11.816406 8.140625 -9.828125 C 9.210938 -7.847656 10.679688 -6.320312 12.546875 -5.25 C 14.421875 -4.175781 16.523438 -3.640625 18.859375 -3.640625 C 22.128906 -3.640625 24.816406 -4.613281 26.921875 -6.5625 C 29.035156 -8.519531 30.269531 -11.164062 30.625 -14.5 L 17.28125 -14.5 L 17.28125 -18.046875 L 35.28125 -18.046875 L 35.28125 -14.6875 C 35.019531 -11.9375 34.15625 -9.414062 32.6875 -7.125 C 31.21875 -4.84375 29.28125 -3.035156 26.875 -1.703125 C 24.476562 -0.378906 21.804688 0.28125 18.859375 0.28125 C 15.753906 0.28125 12.921875 -0.441406 10.359375 -1.890625 C 7.804688 -3.347656 5.785156 -5.375 4.296875 -7.96875 C 2.804688 -10.5625 2.0625 -13.488281 2.0625 -16.75 C 2.0625 -20.007812 2.804688 -22.941406 4.296875 -25.546875 C 5.785156 -28.160156 7.804688 -30.195312 10.359375 -31.65625 C 12.921875 -33.113281 15.753906 -33.84375 18.859375 -33.84375 C 22.410156 -33.84375 25.554688 -32.960938 28.296875 -31.203125 C 31.035156 -29.441406 33.023438 -26.960938 34.265625 -23.765625 Z M 29.046875 -23.765625 "/></g></g></g><g fill="#2c2d2f" fill-opacity="1"><g transform="translate(265.657848, 277.814967)"><g><path d="M 8.0625 -29.90625 L 8.0625 -18.71875 L 20.25 -18.71875 L 20.25 -15.125 L 8.0625 -15.125 L 8.0625 -3.59375 L 21.703125 -3.59375 L 21.703125 0 L 3.703125 0 L 3.703125 -33.5 L 21.703125 -33.5 L 21.703125 -29.90625 Z M 8.0625 -29.90625 "/></g></g></g><g fill="#2c2d2f" fill-opacity="1"><g transform="translate(288.6018, 277.814967)"><g><path d="M 30 0 L 25.625 0 L 8.0625 -26.640625 L 8.0625 0 L 3.703125 0 L 3.703125 -33.5 L 8.0625 -33.5 L 25.625 -6.90625 L 25.625 -33.5 L 30 -33.5 Z M 30 0 "/></g></g></g><g fill="#5894dd" fill-opacity="1"><g transform="translate(95.062486, 298.243749)"><g><path d="M 6.578125 -1.9375 L 2.375 -1.9375 L 1.546875 0 L -0.0625 0 L 3.71875 -8.40625 L 5.25 -8.40625 L 9.046875 0 L 7.421875 0 Z M 6.0625 -3.171875 L 4.46875 -6.84375 L 2.90625 -3.171875 Z M 6.0625 -3.171875 "/></g></g></g><g fill="#5894dd" fill-opacity="1"><g transform="translate(105.970515, 298.243749)"><g><path d="M 1.125 -8.40625 L 2.6875 -8.40625 L 2.6875 0 L 1.125 0 Z M 1.125 -8.40625 "/></g></g></g><g fill="#5894dd" fill-opacity="1"><g transform="translate(111.71853, 298.243749)"><g/></g></g><g fill="#5894dd" fill-opacity="1"><g transform="translate(116.950552, 298.243749)"><g><path d="M 6.625 0 L 4.90625 -2.453125 C 4.832031 -2.453125 4.722656 -2.453125 4.578125 -2.453125 L 2.6875 -2.453125 L 2.6875 0 L 1.125 0 L 1.125 -8.40625 L 4.578125 -8.40625 C 5.304688 -8.40625 5.941406 -8.285156 6.484375 -8.046875 C 7.023438 -7.804688 7.4375 -7.460938 7.71875 -7.015625 C 8.007812 -6.566406 8.15625 -6.03125 8.15625 -5.40625 C 8.15625 -4.78125 8 -4.238281 7.6875 -3.78125 C 7.382812 -3.320312 6.945312 -2.984375 6.375 -2.765625 L 8.296875 0 Z M 6.59375 -5.40625 C 6.59375 -5.945312 6.414062 -6.359375 6.0625 -6.640625 C 5.707031 -6.929688 5.191406 -7.078125 4.515625 -7.078125 L 2.6875 -7.078125 L 2.6875 -3.734375 L 4.515625 -3.734375 C 5.191406 -3.734375 5.707031 -3.878906 6.0625 -4.171875 C 6.414062 -4.460938 6.59375 -4.875 6.59375 -5.40625 Z M 6.59375 -5.40625 "/></g></g></g><g fill="#5894dd" fill-opacity="1"><g transform="translate(127.642586, 298.243749)"><g><path d="M 7.421875 -1.3125 L 7.421875 0 L 1.125 0 L 1.125 -8.40625 L 7.265625 -8.40625 L 7.265625 -7.09375 L 2.6875 -7.09375 L 2.6875 -4.90625 L 6.75 -4.90625 L 6.75 -3.625 L 2.6875 -3.625 L 2.6875 -1.3125 Z M 7.421875 -1.3125 "/></g></g></g><g fill="#5894dd" fill-opacity="1"><g transform="translate(137.60261, 298.243749)"><g><path d="M 3.734375 0.125 C 3.085938 0.125 2.460938 0.03125 1.859375 -0.15625 C 1.253906 -0.34375 0.773438 -0.585938 0.421875 -0.890625 L 0.953125 -2.09375 C 1.296875 -1.820312 1.71875 -1.597656 2.21875 -1.421875 C 2.71875 -1.253906 3.222656 -1.171875 3.734375 -1.171875 C 4.359375 -1.171875 4.820312 -1.269531 5.125 -1.46875 C 5.4375 -1.675781 5.59375 -1.941406 5.59375 -2.265625 C 5.59375 -2.503906 5.503906 -2.703125 5.328125 -2.859375 C 5.160156 -3.015625 4.941406 -3.132812 4.671875 -3.21875 C 4.410156 -3.3125 4.050781 -3.414062 3.59375 -3.53125 C 2.957031 -3.675781 2.441406 -3.828125 2.046875 -3.984375 C 1.648438 -4.140625 1.304688 -4.378906 1.015625 -4.703125 C 0.734375 -5.023438 0.59375 -5.460938 0.59375 -6.015625 C 0.59375 -6.472656 0.71875 -6.890625 0.96875 -7.265625 C 1.226562 -7.648438 1.609375 -7.953125 2.109375 -8.171875 C 2.617188 -8.398438 3.242188 -8.515625 3.984375 -8.515625 C 4.492188 -8.515625 4.992188 -8.453125 5.484375 -8.328125 C 5.984375 -8.203125 6.414062 -8.019531 6.78125 -7.78125 L 6.28125 -6.5625 C 5.914062 -6.78125 5.53125 -6.941406 5.125 -7.046875 C 4.726562 -7.160156 4.34375 -7.21875 3.96875 -7.21875 C 3.351562 -7.21875 2.894531 -7.113281 2.59375 -6.90625 C 2.289062 -6.695312 2.140625 -6.421875 2.140625 -6.078125 C 2.140625 -5.835938 2.222656 -5.640625 2.390625 -5.484375 C 2.566406 -5.335938 2.785156 -5.21875 3.046875 -5.125 C 3.316406 -5.039062 3.679688 -4.945312 4.140625 -4.84375 C 4.765625 -4.695312 5.273438 -4.546875 5.671875 -4.390625 C 6.078125 -4.234375 6.421875 -3.992188 6.703125 -3.671875 C 6.984375 -3.347656 7.125 -2.914062 7.125 -2.375 C 7.125 -1.914062 7 -1.492188 6.75 -1.109375 C 6.5 -0.734375 6.117188 -0.429688 5.609375 -0.203125 C 5.097656 0.015625 4.472656 0.125 3.734375 0.125 Z M 3.734375 0.125 "/></g></g></g><g fill="#5894dd" fill-opacity="1"><g transform="translate(147.070639, 298.243749)"><g><path d="M 4.734375 0.125 C 3.578125 0.125 2.675781 -0.203125 2.03125 -0.859375 C 1.382812 -1.515625 1.0625 -2.445312 1.0625 -3.65625 L 1.0625 -8.40625 L 2.609375 -8.40625 L 2.609375 -3.71875 C 2.609375 -2.070312 3.320312 -1.25 4.75 -1.25 C 6.164062 -1.25 6.875 -2.070312 6.875 -3.71875 L 6.875 -8.40625 L 8.40625 -8.40625 L 8.40625 -3.65625 C 8.40625 -2.445312 8.082031 -1.515625 7.4375 -0.859375 C 6.800781 -0.203125 5.898438 0.125 4.734375 0.125 Z M 4.734375 0.125 "/></g></g></g><g fill="#5894dd" fill-opacity="1"><g transform="translate(158.458665, 298.243749)"><g><path d="M 8.84375 0 L 8.828125 -5.5625 L 6.078125 -0.953125 L 5.375 -0.953125 L 2.609375 -5.5 L 2.609375 0 L 1.125 0 L 1.125 -8.40625 L 2.40625 -8.40625 L 5.75 -2.828125 L 9.03125 -8.40625 L 10.3125 -8.40625 L 10.3125 0 Z M 8.84375 0 "/></g></g></g><g fill="#5894dd" fill-opacity="1"><g transform="translate(171.838696, 298.243749)"><g><path d="M 7.421875 -1.3125 L 7.421875 0 L 1.125 0 L 1.125 -8.40625 L 7.265625 -8.40625 L 7.265625 -7.09375 L 2.6875 -7.09375 L 2.6875 -4.90625 L 6.75 -4.90625 L 6.75 -3.625 L 2.6875 -3.625 L 2.6875 -1.3125 Z M 7.421875 -1.3125 "/></g></g></g><g fill="#5894dd" fill-opacity="1"><g transform="translate(181.798717, 298.243749)"><g/></g></g><g fill="#5894dd" fill-opacity="1"><g transform="translate(187.030738, 298.243749)"><g><path d="M 7.421875 -1.3125 L 7.421875 0 L 1.125 0 L 1.125 -8.40625 L 7.265625 -8.40625 L 7.265625 -7.09375 L 2.6875 -7.09375 L 2.6875 -4.90625 L 6.75 -4.90625 L 6.75 -3.625 L 2.6875 -3.625 L 2.6875 -1.3125 Z M 7.421875 -1.3125 "/></g></g></g><g fill="#5894dd" fill-opacity="1"><g transform="translate(196.990759, 298.243749)"><g><path d="M 8.8125 -8.40625 L 5.140625 0 L 3.609375 0 L -0.0625 -8.40625 L 1.625 -8.40625 L 4.421875 -1.921875 L 7.25 -8.40625 Z M 8.8125 -8.40625 "/></g></g></g><g fill="#5894dd" fill-opacity="1"><g transform="translate(207.658781, 298.243749)"><g><path d="M 6.578125 -1.9375 L 2.375 -1.9375 L 1.546875 0 L -0.0625 0 L 3.71875 -8.40625 L 5.25 -8.40625 L 9.046875 0 L 7.421875 0 Z M 6.0625 -3.171875 L 4.46875 -6.84375 L 2.90625 -3.171875 Z M 6.0625 -3.171875 "/></g></g></g><g fill="#5894dd" fill-opacity="1"><g transform="translate(218.566808, 298.243749)"><g><path d="M 1.125 -8.40625 L 2.6875 -8.40625 L 2.6875 -1.3125 L 7.078125 -1.3125 L 7.078125 0 L 1.125 0 Z M 1.125 -8.40625 "/></g></g></g><g fill="#5894dd" fill-opacity="1"><g transform="translate(227.674828, 298.243749)"><g><path d="M 4.734375 0.125 C 3.578125 0.125 2.675781 -0.203125 2.03125 -0.859375 C 1.382812 -1.515625 1.0625 -2.445312 1.0625 -3.65625 L 1.0625 -8.40625 L 2.609375 -8.40625 L 2.609375 -3.71875 C 2.609375 -2.070312 3.320312 -1.25 4.75 -1.25 C 6.164062 -1.25 6.875 -2.070312 6.875 -3.71875 L 6.875 -8.40625 L 8.40625 -8.40625 L 8.40625 -3.65625 C 8.40625 -2.445312 8.082031 -1.515625 7.4375 -0.859375 C 6.800781 -0.203125 5.898438 0.125 4.734375 0.125 Z M 4.734375 0.125 "/></g></g></g><g fill="#5894dd" fill-opacity="1"><g transform="translate(239.062855, 298.243749)"><g><path d="M 6.578125 -1.9375 L 2.375 -1.9375 L 1.546875 0 L -0.0625 0 L 3.71875 -8.40625 L 5.25 -8.40625 L 9.046875 0 L 7.421875 0 Z M 6.0625 -3.171875 L 4.46875 -6.84375 L 2.90625 -3.171875 Z M 6.0625 -3.171875 "/></g></g></g><g fill="#5894dd" fill-opacity="1"><g transform="translate(249.970881, 298.243749)"><g><path d="M 2.828125 -7.078125 L 0.046875 -7.078125 L 0.046875 -8.40625 L 7.171875 -8.40625 L 7.171875 -7.078125 L 4.390625 -7.078125 L 4.390625 0 L 2.828125 0 Z M 2.828125 -7.078125 "/></g></g></g><g fill="#5894dd" fill-opacity="1"><g transform="translate(259.114905, 298.243749)"><g><path d="M 5.046875 0.125 C 4.191406 0.125 3.421875 -0.0625 2.734375 -0.4375 C 2.046875 -0.8125 1.503906 -1.328125 1.109375 -1.984375 C 0.722656 -2.640625 0.53125 -3.378906 0.53125 -4.203125 C 0.53125 -5.015625 0.722656 -5.75 1.109375 -6.40625 C 1.503906 -7.070312 2.046875 -7.585938 2.734375 -7.953125 C 3.421875 -8.328125 4.191406 -8.515625 5.046875 -8.515625 C 5.910156 -8.515625 6.6875 -8.328125 7.375 -7.953125 C 8.0625 -7.585938 8.597656 -7.078125 8.984375 -6.421875 C 9.378906 -5.765625 9.578125 -5.023438 9.578125 -4.203125 C 9.578125 -3.378906 9.378906 -2.640625 8.984375 -1.984375 C 8.597656 -1.328125 8.0625 -0.8125 7.375 -0.4375 C 6.6875 -0.0625 5.910156 0.125 5.046875 0.125 Z M 5.046875 -1.25 C 5.609375 -1.25 6.113281 -1.375 6.5625 -1.625 C 7.007812 -1.875 7.359375 -2.222656 7.609375 -2.671875 C 7.867188 -3.128906 8 -3.640625 8 -4.203125 C 8 -4.765625 7.867188 -5.269531 7.609375 -5.71875 C 7.359375 -6.164062 7.007812 -6.515625 6.5625 -6.765625 C 6.113281 -7.023438 5.609375 -7.15625 5.046875 -7.15625 C 4.492188 -7.15625 3.992188 -7.023438 3.546875 -6.765625 C 3.097656 -6.515625 2.742188 -6.164062 2.484375 -5.71875 C 2.222656 -5.269531 2.09375 -4.765625 2.09375 -4.203125 C 2.09375 -3.640625 2.222656 -3.128906 2.484375 -2.671875 C 2.742188 -2.222656 3.097656 -1.875 3.546875 -1.625 C 3.992188 -1.375 4.492188 -1.25 5.046875 -1.25 Z M 5.046875 -1.25 "/></g></g></g><g fill="#5894dd" fill-opacity="1"><g transform="translate(271.138937, 298.243749)"><g><path d="M 6.625 0 L 4.90625 -2.453125 C 4.832031 -2.453125 4.722656 -2.453125 4.578125 -2.453125 L 2.6875 -2.453125 L 2.6875 0 L 1.125 0 L 1.125 -8.40625 L 4.578125 -8.40625 C 5.304688 -8.40625 5.941406 -8.285156 6.484375 -8.046875 C 7.023438 -7.804688 7.4375 -7.460938 7.71875 -7.015625 C 8.007812 -6.566406 8.15625 -6.03125 8.15625 -5.40625 C 8.15625 -4.78125 8 -4.238281 7.6875 -3.78125 C 7.382812 -3.320312 6.945312 -2.984375 6.375 -2.765625 L 8.296875 0 Z M 6.59375 -5.40625 C 6.59375 -5.945312 6.414062 -6.359375 6.0625 -6.640625 C 5.707031 -6.929688 5.191406 -7.078125 4.515625 -7.078125 L 2.6875 -7.078125 L 2.6875 -3.734375 L 4.515625 -3.734375 C 5.191406 -3.734375 5.707031 -3.878906 6.0625 -4.171875 C 6.414062 -4.460938 6.59375 -4.875 6.59375 -5.40625 Z M 6.59375 -5.40625 "/></g></g></g></svg>