<svg xmlns="http://www.w3.org/2000/svg" xmlns:xlink="http://www.w3.org/1999/xlink" width="2240" zoomAndPan="magnify" viewBox="0 0 1680 944.999993" height="1260" preserveAspectRatio="xMidYMid meet" version="1.0"><defs><g/><clipPath id="6b9c1103ab"><path d="M 177 315 L 489 315 L 489 539 L 177 539 Z M 177 315 " clip-rule="nonzero"/></clipPath><clipPath id="23a52747be"><path d="M 475.714844 479.59375 L 401.550781 532.578125 C 396.253906 536.359375 390.152344 538.179688 384.105469 538.179688 C 374.714844 538.179688 365.464844 533.792969 359.59375 525.5625 C 349.945312 512.023438 353.082031 493.21875 366.605469 483.558594 L 379.925781 474.039062 L 383.105469 471.769531 C 387.363281 468.730469 389.652344 463.921875 389.652344 459.027344 C 389.652344 456.121094 388.84375 453.183594 387.160156 450.566406 C 382.324219 443.074219 372.21875 441.136719 364.960938 446.320312 L 257.035156 523.421875 C 251.738281 527.203125 245.636719 529.023438 239.589844 529.023438 C 230.199219 529.023438 220.949219 524.636719 215.082031 516.40625 C 205.429688 502.867188 208.570312 484.0625 222.089844 474.402344 L 240.03125 461.589844 L 245.121094 457.945312 C 251.914062 453.097656 253.699219 443.761719 249.179688 436.746094 C 244.34375 429.246094 234.238281 427.3125 226.980469 432.492188 L 225.476562 433.570312 C 211.953125 443.226562 193.171875 440.085938 183.523438 426.554688 C 173.871094 413.015625 177.007812 394.210938 190.53125 384.550781 L 279.75 320.808594 C 293.273438 311.152344 312.054688 314.292969 321.703125 327.832031 C 331.355469 341.363281 328.21875 360.171875 314.695312 369.832031 L 278.808594 395.472656 C 271.511719 400.683594 270.089844 410.964844 275.691406 417.96875 C 280.871094 424.445312 290.203125 425.746094 296.953125 420.921875 L 299.507812 419.09375 L 416.375 335.605469 C 421.667969 331.820312 427.773438 330 433.816406 330 C 443.210938 330 452.460938 334.386719 458.332031 342.625 C 467.980469 356.160156 464.839844 374.960938 451.324219 384.625 L 417.921875 408.484375 L 416.789062 409.292969 C 409.492188 414.507812 408.066406 424.785156 413.671875 431.792969 C 418.851562 438.269531 428.1875 439.566406 434.933594 434.746094 L 436.085938 433.929688 L 440.773438 430.574219 C 454.296875 420.914062 473.082031 424.058594 482.726562 437.59375 C 492.378906 451.128906 489.238281 469.929688 475.714844 479.59375 Z M 475.714844 479.59375 " clip-rule="nonzero"/></clipPath><linearGradient x1="507.583236" gradientTransform="matrix(0.592903, 0, 0, 0.593535, 177.923055, 271.686968)" y1="41.958831" x2="28.388549" gradientUnits="userSpaceOnUse" y2="486.924932" id="e42f64a5e3"><stop stop-opacity="1" stop-color="rgb(39.99939%, 81.999207%, 90.59906%)" offset="0"/><stop stop-opacity="1" stop-color="rgb(39.99939%, 81.999207%, 90.59906%)" offset="0.125"/><stop stop-opacity="1" stop-color="rgb(39.94751%, 81.750488%, 90.560913%)" offset="0.128906"/><stop stop-opacity="1" stop-color="rgb(39.89563%, 81.50177%, 90.522766%)" offset="0.132812"/><stop stop-opacity="1" stop-color="rgb(39.820862%, 81.143188%, 90.466309%)" offset="0.136719"/><stop stop-opacity="1" stop-color="rgb(39.746094%, 80.784607%, 90.411377%)" offset="0.140625"/><stop stop-opacity="1" stop-color="rgb(39.671326%, 80.426025%, 90.354919%)" offset="0.144531"/><stop stop-opacity="1" stop-color="rgb(39.598083%, 80.06897%, 90.299988%)" offset="0.148437"/><stop stop-opacity="1" stop-color="rgb(39.523315%, 79.710388%, 90.245056%)" offset="0.152344"/><stop stop-opacity="1" stop-color="rgb(39.448547%, 79.351807%, 90.190125%)" offset="0.15625"/><stop stop-opacity="1" stop-color="rgb(39.373779%, 78.993225%, 90.133667%)" offset="0.160156"/><stop stop-opacity="1" stop-color="rgb(39.300537%, 78.636169%, 90.078735%)" offset="0.164062"/><stop stop-opacity="1" stop-color="rgb(39.225769%, 78.277588%, 90.022278%)" offset="0.167969"/><stop stop-opacity="1" stop-color="rgb(39.151001%, 77.919006%, 89.967346%)" offset="0.171875"/><stop stop-opacity="1" stop-color="rgb(39.076233%, 77.560425%, 89.912415%)" offset="0.175781"/><stop stop-opacity="1" stop-color="rgb(39.001465%, 77.203369%, 89.857483%)" offset="0.179688"/><stop stop-opacity="1" stop-color="rgb(38.926697%, 76.844788%, 89.801025%)" offset="0.183594"/><stop stop-opacity="1" stop-color="rgb(38.853455%, 76.486206%, 89.746094%)" offset="0.1875"/><stop stop-opacity="1" stop-color="rgb(38.778687%, 76.127625%, 89.689636%)" offset="0.191406"/><stop stop-opacity="1" stop-color="rgb(38.703918%, 75.770569%, 89.634705%)" offset="0.195312"/><stop stop-opacity="1" stop-color="rgb(38.62915%, 75.411987%, 89.579773%)" offset="0.199219"/><stop stop-opacity="1" stop-color="rgb(38.555908%, 75.053406%, 89.524841%)" offset="0.203125"/><stop stop-opacity="1" stop-color="rgb(38.48114%, 74.694824%, 89.468384%)" offset="0.207031"/><stop stop-opacity="1" stop-color="rgb(38.406372%, 74.336243%, 89.413452%)" offset="0.210937"/><stop stop-opacity="1" stop-color="rgb(38.331604%, 73.977661%, 89.356995%)" offset="0.214844"/><stop stop-opacity="1" stop-color="rgb(38.256836%, 73.620605%, 89.302063%)" offset="0.21875"/><stop stop-opacity="1" stop-color="rgb(38.182068%, 73.262024%, 89.247131%)" offset="0.222656"/><stop stop-opacity="1" stop-color="rgb(38.108826%, 72.903442%, 89.1922%)" offset="0.226562"/><stop stop-opacity="1" stop-color="rgb(38.034058%, 72.544861%, 89.135742%)" offset="0.230469"/><stop stop-opacity="1" stop-color="rgb(37.95929%, 72.187805%, 89.080811%)" offset="0.234375"/><stop stop-opacity="1" stop-color="rgb(37.884521%, 71.829224%, 89.024353%)" offset="0.238281"/><stop stop-opacity="1" stop-color="rgb(37.811279%, 71.470642%, 88.969421%)" offset="0.242188"/><stop stop-opacity="1" stop-color="rgb(37.736511%, 71.112061%, 88.91449%)" offset="0.246094"/><stop stop-opacity="1" stop-color="rgb(37.661743%, 70.755005%, 88.859558%)" offset="0.25"/><stop stop-opacity="1" stop-color="rgb(37.586975%, 70.396423%, 88.803101%)" offset="0.253906"/><stop stop-opacity="1" stop-color="rgb(37.512207%, 70.037842%, 88.748169%)" offset="0.257812"/><stop stop-opacity="1" stop-color="rgb(37.437439%, 69.67926%, 88.691711%)" offset="0.261719"/><stop stop-opacity="1" stop-color="rgb(37.364197%, 69.322205%, 88.63678%)" offset="0.265625"/><stop stop-opacity="1" stop-color="rgb(37.289429%, 68.963623%, 88.581848%)" offset="0.269531"/><stop stop-opacity="1" stop-color="rgb(37.214661%, 68.605042%, 88.526917%)" offset="0.273437"/><stop stop-opacity="1" stop-color="rgb(37.139893%, 68.24646%, 88.470459%)" offset="0.277344"/><stop stop-opacity="1" stop-color="rgb(37.06665%, 67.889404%, 88.415527%)" offset="0.28125"/><stop stop-opacity="1" stop-color="rgb(36.991882%, 67.530823%, 88.35907%)" offset="0.285156"/><stop stop-opacity="1" stop-color="rgb(36.917114%, 67.172241%, 88.304138%)" offset="0.289062"/><stop stop-opacity="1" stop-color="rgb(36.842346%, 66.81366%, 88.249207%)" offset="0.292969"/><stop stop-opacity="1" stop-color="rgb(36.767578%, 66.456604%, 88.194275%)" offset="0.296875"/><stop stop-opacity="1" stop-color="rgb(36.69281%, 66.098022%, 88.137817%)" offset="0.300781"/><stop stop-opacity="1" stop-color="rgb(36.619568%, 65.739441%, 88.082886%)" offset="0.304688"/><stop stop-opacity="1" stop-color="rgb(36.5448%, 65.380859%, 88.026428%)" offset="0.308594"/><stop stop-opacity="1" stop-color="rgb(36.470032%, 65.023804%, 87.971497%)" offset="0.3125"/><stop stop-opacity="1" stop-color="rgb(36.395264%, 64.665222%, 87.915039%)" offset="0.316406"/><stop stop-opacity="1" stop-color="rgb(36.320496%, 64.306641%, 87.860107%)" offset="0.320312"/><stop stop-opacity="1" stop-color="rgb(36.245728%, 63.948059%, 87.805176%)" offset="0.324219"/><stop stop-opacity="1" stop-color="rgb(36.172485%, 63.591003%, 87.750244%)" offset="0.328125"/><stop stop-opacity="1" stop-color="rgb(36.097717%, 63.232422%, 87.693787%)" offset="0.332031"/><stop stop-opacity="1" stop-color="rgb(36.022949%, 62.87384%, 87.638855%)" offset="0.335937"/><stop stop-opacity="1" stop-color="rgb(35.948181%, 62.515259%, 87.582397%)" offset="0.339844"/><stop stop-opacity="1" stop-color="rgb(35.874939%, 62.158203%, 87.527466%)" offset="0.34375"/><stop stop-opacity="1" stop-color="rgb(35.800171%, 61.799622%, 87.472534%)" offset="0.347656"/><stop stop-opacity="1" stop-color="rgb(35.725403%, 61.44104%, 87.417603%)" offset="0.351562"/><stop stop-opacity="1" stop-color="rgb(35.650635%, 61.082458%, 87.361145%)" offset="0.355469"/><stop stop-opacity="1" stop-color="rgb(35.575867%, 60.725403%, 87.306213%)" offset="0.359375"/><stop stop-opacity="1" stop-color="rgb(35.501099%, 60.366821%, 87.249756%)" offset="0.363281"/><stop stop-opacity="1" stop-color="rgb(35.427856%, 60.00824%, 87.194824%)" offset="0.367188"/><stop stop-opacity="1" stop-color="rgb(35.353088%, 59.649658%, 87.139893%)" offset="0.371094"/><stop stop-opacity="1" stop-color="rgb(35.27832%, 59.292603%, 87.084961%)" offset="0.375"/><stop stop-opacity="1" stop-color="rgb(35.203552%, 58.934021%, 87.028503%)" offset="0.378906"/><stop stop-opacity="1" stop-color="rgb(35.13031%, 58.575439%, 86.973572%)" offset="0.382812"/><stop stop-opacity="1" stop-color="rgb(35.055542%, 58.216858%, 86.917114%)" offset="0.386719"/><stop stop-opacity="1" stop-color="rgb(34.980774%, 57.859802%, 86.862183%)" offset="0.390625"/><stop stop-opacity="1" stop-color="rgb(34.906006%, 57.501221%, 86.807251%)" offset="0.394531"/><stop stop-opacity="1" stop-color="rgb(34.831238%, 57.142639%, 86.752319%)" offset="0.398437"/><stop stop-opacity="1" stop-color="rgb(34.75647%, 56.784058%, 86.695862%)" offset="0.402344"/><stop stop-opacity="1" stop-color="rgb(34.683228%, 56.427002%, 86.64093%)" offset="0.40625"/><stop stop-opacity="1" stop-color="rgb(34.608459%, 56.06842%, 86.584473%)" offset="0.410156"/><stop stop-opacity="1" stop-color="rgb(34.533691%, 55.709839%, 86.529541%)" offset="0.414062"/><stop stop-opacity="1" stop-color="rgb(34.458923%, 55.351257%, 86.474609%)" offset="0.417969"/><stop stop-opacity="1" stop-color="rgb(34.385681%, 54.994202%, 86.419678%)" offset="0.421875"/><stop stop-opacity="1" stop-color="rgb(34.310913%, 54.63562%, 86.36322%)" offset="0.425781"/><stop stop-opacity="1" stop-color="rgb(34.236145%, 54.277039%, 86.308289%)" offset="0.429687"/><stop stop-opacity="1" stop-color="rgb(34.161377%, 53.918457%, 86.251831%)" offset="0.433594"/><stop stop-opacity="1" stop-color="rgb(34.086609%, 53.561401%, 86.196899%)" offset="0.4375"/><stop stop-opacity="1" stop-color="rgb(34.011841%, 53.20282%, 86.141968%)" offset="0.441406"/><stop stop-opacity="1" stop-color="rgb(33.938599%, 52.844238%, 86.087036%)" offset="0.445312"/><stop stop-opacity="1" stop-color="rgb(33.863831%, 52.485657%, 86.030579%)" offset="0.449219"/><stop stop-opacity="1" stop-color="rgb(33.789062%, 52.128601%, 85.975647%)" offset="0.453125"/><stop stop-opacity="1" stop-color="rgb(33.714294%, 51.77002%, 85.919189%)" offset="0.457031"/><stop stop-opacity="1" stop-color="rgb(33.641052%, 51.411438%, 85.864258%)" offset="0.460937"/><stop stop-opacity="1" stop-color="rgb(33.566284%, 51.052856%, 85.809326%)" offset="0.464844"/><stop stop-opacity="1" stop-color="rgb(33.491516%, 50.695801%, 85.754395%)" offset="0.46875"/><stop stop-opacity="1" stop-color="rgb(33.416748%, 50.337219%, 85.697937%)" offset="0.472656"/><stop stop-opacity="1" stop-color="rgb(33.34198%, 49.978638%, 85.643005%)" offset="0.476562"/><stop stop-opacity="1" stop-color="rgb(33.267212%, 49.620056%, 85.586548%)" offset="0.480469"/><stop stop-opacity="1" stop-color="rgb(33.19397%, 49.263%, 85.531616%)" offset="0.484375"/><stop stop-opacity="1" stop-color="rgb(33.119202%, 48.904419%, 85.476685%)" offset="0.488281"/><stop stop-opacity="1" stop-color="rgb(33.044434%, 48.545837%, 85.421753%)" offset="0.492187"/><stop stop-opacity="1" stop-color="rgb(32.969666%, 48.187256%, 85.365295%)" offset="0.496094"/><stop stop-opacity="1" stop-color="rgb(32.896423%, 47.8302%, 85.310364%)" offset="0.5"/><stop stop-opacity="1" stop-color="rgb(32.821655%, 47.471619%, 85.253906%)" offset="0.503906"/><stop stop-opacity="1" stop-color="rgb(32.746887%, 47.113037%, 85.198975%)" offset="0.507812"/><stop stop-opacity="1" stop-color="rgb(32.672119%, 46.754456%, 85.144043%)" offset="0.511719"/><stop stop-opacity="1" stop-color="rgb(32.597351%, 46.3974%, 85.089111%)" offset="0.515625"/><stop stop-opacity="1" stop-color="rgb(32.522583%, 46.038818%, 85.032654%)" offset="0.519531"/><stop stop-opacity="1" stop-color="rgb(32.449341%, 45.680237%, 84.977722%)" offset="0.523437"/><stop stop-opacity="1" stop-color="rgb(32.374573%, 45.321655%, 84.921265%)" offset="0.527344"/><stop stop-opacity="1" stop-color="rgb(32.299805%, 44.9646%, 84.866333%)" offset="0.53125"/><stop stop-opacity="1" stop-color="rgb(32.225037%, 44.606018%, 84.811401%)" offset="0.535156"/><stop stop-opacity="1" stop-color="rgb(32.150269%, 44.247437%, 84.75647%)" offset="0.539062"/><stop stop-opacity="1" stop-color="rgb(32.0755%, 43.888855%, 84.700012%)" offset="0.542969"/><stop stop-opacity="1" stop-color="rgb(32.002258%, 43.531799%, 84.645081%)" offset="0.546875"/><stop stop-opacity="1" stop-color="rgb(31.92749%, 43.173218%, 84.588623%)" offset="0.550781"/><stop stop-opacity="1" stop-color="rgb(31.852722%, 42.814636%, 84.533691%)" offset="0.554687"/><stop stop-opacity="1" stop-color="rgb(31.777954%, 42.456055%, 84.47876%)" offset="0.558594"/><stop stop-opacity="1" stop-color="rgb(31.704712%, 42.098999%, 84.423828%)" offset="0.5625"/><stop stop-opacity="1" stop-color="rgb(31.629944%, 41.740417%, 84.367371%)" offset="0.566406"/><stop stop-opacity="1" stop-color="rgb(31.555176%, 41.381836%, 84.312439%)" offset="0.570312"/><stop stop-opacity="1" stop-color="rgb(31.480408%, 41.023254%, 84.255981%)" offset="0.574219"/><stop stop-opacity="1" stop-color="rgb(31.40564%, 40.666199%, 84.20105%)" offset="0.578125"/><stop stop-opacity="1" stop-color="rgb(31.330872%, 40.307617%, 84.146118%)" offset="0.582031"/><stop stop-opacity="1" stop-color="rgb(31.257629%, 39.949036%, 84.091187%)" offset="0.585937"/><stop stop-opacity="1" stop-color="rgb(31.182861%, 39.590454%, 84.034729%)" offset="0.589844"/><stop stop-opacity="1" stop-color="rgb(31.108093%, 39.233398%, 83.979797%)" offset="0.59375"/><stop stop-opacity="1" stop-color="rgb(31.033325%, 38.874817%, 83.92334%)" offset="0.597656"/><stop stop-opacity="1" stop-color="rgb(30.960083%, 38.516235%, 83.868408%)" offset="0.601562"/><stop stop-opacity="1" stop-color="rgb(30.885315%, 38.157654%, 83.813477%)" offset="0.605469"/><stop stop-opacity="1" stop-color="rgb(30.810547%, 37.800598%, 83.758545%)" offset="0.609375"/><stop stop-opacity="1" stop-color="rgb(30.735779%, 37.442017%, 83.702087%)" offset="0.613281"/><stop stop-opacity="1" stop-color="rgb(30.661011%, 37.083435%, 83.647156%)" offset="0.617187"/><stop stop-opacity="1" stop-color="rgb(30.586243%, 36.724854%, 83.590698%)" offset="0.621094"/><stop stop-opacity="1" stop-color="rgb(30.513%, 36.366272%, 83.535767%)" offset="0.625"/><stop stop-opacity="1" stop-color="rgb(30.438232%, 36.00769%, 83.480835%)" offset="0.628906"/><stop stop-opacity="1" stop-color="rgb(30.363464%, 35.650635%, 83.425903%)" offset="0.632812"/><stop stop-opacity="1" stop-color="rgb(30.288696%, 35.292053%, 83.369446%)" offset="0.636719"/><stop stop-opacity="1" stop-color="rgb(30.215454%, 34.933472%, 83.314514%)" offset="0.640625"/><stop stop-opacity="1" stop-color="rgb(30.140686%, 34.57489%, 83.258057%)" offset="0.644531"/><stop stop-opacity="1" stop-color="rgb(30.065918%, 34.217834%, 83.203125%)" offset="0.648437"/><stop stop-opacity="1" stop-color="rgb(29.99115%, 33.859253%, 83.148193%)" offset="0.652344"/><stop stop-opacity="1" stop-color="rgb(29.916382%, 33.500671%, 83.093262%)" offset="0.65625"/><stop stop-opacity="1" stop-color="rgb(29.841614%, 33.14209%, 83.036804%)" offset="0.660156"/><stop stop-opacity="1" stop-color="rgb(29.768372%, 32.785034%, 82.981873%)" offset="0.664062"/><stop stop-opacity="1" stop-color="rgb(29.693604%, 32.426453%, 82.925415%)" offset="0.667969"/><stop stop-opacity="1" stop-color="rgb(29.618835%, 32.067871%, 82.870483%)" offset="0.671875"/><stop stop-opacity="1" stop-color="rgb(29.544067%, 31.70929%, 82.815552%)" offset="0.675781"/><stop stop-opacity="1" stop-color="rgb(29.470825%, 31.352234%, 82.76062%)" offset="0.679688"/><stop stop-opacity="1" stop-color="rgb(29.396057%, 30.993652%, 82.704163%)" offset="0.683594"/><stop stop-opacity="1" stop-color="rgb(29.321289%, 30.635071%, 82.649231%)" offset="0.6875"/><stop stop-opacity="1" stop-color="rgb(29.246521%, 30.276489%, 82.592773%)" offset="0.691406"/><stop stop-opacity="1" stop-color="rgb(29.171753%, 29.919434%, 82.537842%)" offset="0.695312"/><stop stop-opacity="1" stop-color="rgb(29.096985%, 29.560852%, 82.48291%)" offset="0.699219"/><stop stop-opacity="1" stop-color="rgb(29.023743%, 29.202271%, 82.427979%)" offset="0.703125"/><stop stop-opacity="1" stop-color="rgb(28.948975%, 28.843689%, 82.371521%)" offset="0.707031"/><stop stop-opacity="1" stop-color="rgb(28.874207%, 28.486633%, 82.316589%)" offset="0.710937"/><stop stop-opacity="1" stop-color="rgb(28.799438%, 28.128052%, 82.260132%)" offset="0.714844"/><stop stop-opacity="1" stop-color="rgb(28.726196%, 27.76947%, 82.2052%)" offset="0.71875"/><stop stop-opacity="1" stop-color="rgb(28.651428%, 27.410889%, 82.150269%)" offset="0.722656"/><stop stop-opacity="1" stop-color="rgb(28.57666%, 27.053833%, 82.095337%)" offset="0.726562"/><stop stop-opacity="1" stop-color="rgb(28.501892%, 26.695251%, 82.038879%)" offset="0.730469"/><stop stop-opacity="1" stop-color="rgb(28.427124%, 26.33667%, 81.983948%)" offset="0.734375"/><stop stop-opacity="1" stop-color="rgb(28.352356%, 25.978088%, 81.92749%)" offset="0.738281"/><stop stop-opacity="1" stop-color="rgb(28.279114%, 25.621033%, 81.872559%)" offset="0.742188"/><stop stop-opacity="1" stop-color="rgb(28.204346%, 25.262451%, 81.817627%)" offset="0.746094"/><stop stop-opacity="1" stop-color="rgb(28.129578%, 24.90387%, 81.762695%)" offset="0.75"/><stop stop-opacity="1" stop-color="rgb(28.05481%, 24.545288%, 81.706238%)" offset="0.753906"/><stop stop-opacity="1" stop-color="rgb(27.981567%, 24.188232%, 81.651306%)" offset="0.757812"/><stop stop-opacity="1" stop-color="rgb(27.906799%, 23.829651%, 81.594849%)" offset="0.761719"/><stop stop-opacity="1" stop-color="rgb(27.832031%, 23.471069%, 81.539917%)" offset="0.765625"/><stop stop-opacity="1" stop-color="rgb(27.757263%, 23.112488%, 81.484985%)" offset="0.769531"/><stop stop-opacity="1" stop-color="rgb(27.682495%, 22.755432%, 81.430054%)" offset="0.773438"/><stop stop-opacity="1" stop-color="rgb(27.607727%, 22.396851%, 81.373596%)" offset="0.777344"/><stop stop-opacity="1" stop-color="rgb(27.534485%, 22.038269%, 81.318665%)" offset="0.78125"/><stop stop-opacity="1" stop-color="rgb(27.459717%, 21.679688%, 81.262207%)" offset="0.785156"/><stop stop-opacity="1" stop-color="rgb(27.384949%, 21.322632%, 81.207275%)" offset="0.789062"/><stop stop-opacity="1" stop-color="rgb(27.310181%, 20.96405%, 81.152344%)" offset="0.792969"/><stop stop-opacity="1" stop-color="rgb(27.235413%, 20.605469%, 81.097412%)" offset="0.796875"/><stop stop-opacity="1" stop-color="rgb(27.160645%, 20.246887%, 81.040955%)" offset="0.800781"/><stop stop-opacity="1" stop-color="rgb(27.087402%, 19.889832%, 80.986023%)" offset="0.804687"/><stop stop-opacity="1" stop-color="rgb(27.012634%, 19.53125%, 80.929565%)" offset="0.808594"/><stop stop-opacity="1" stop-color="rgb(26.937866%, 19.172668%, 80.874634%)" offset="0.8125"/><stop stop-opacity="1" stop-color="rgb(26.863098%, 18.814087%, 80.819702%)" offset="0.816406"/><stop stop-opacity="1" stop-color="rgb(26.789856%, 18.457031%, 80.764771%)" offset="0.820312"/><stop stop-opacity="1" stop-color="rgb(26.715088%, 18.09845%, 80.708313%)" offset="0.824219"/><stop stop-opacity="1" stop-color="rgb(26.64032%, 17.739868%, 80.653381%)" offset="0.828125"/><stop stop-opacity="1" stop-color="rgb(26.565552%, 17.381287%, 80.596924%)" offset="0.832031"/><stop stop-opacity="1" stop-color="rgb(26.490784%, 17.024231%, 80.541992%)" offset="0.835938"/><stop stop-opacity="1" stop-color="rgb(26.416016%, 16.665649%, 80.487061%)" offset="0.839844"/><stop stop-opacity="1" stop-color="rgb(26.342773%, 16.307068%, 80.432129%)" offset="0.84375"/><stop stop-opacity="1" stop-color="rgb(26.319885%, 16.203308%, 80.415344%)" offset="0.875"/><stop stop-opacity="1" stop-color="rgb(26.298523%, 16.099548%, 80.39856%)" offset="1"/></linearGradient><clipPath id="5f9913e327"><path d="M 291 521 L 354 521 L 354 584 L 291 584 Z M 291 521 " clip-rule="nonzero"/></clipPath><clipPath id="f3a5205107"><path d="M 305.667969 527.09375 L 303.792969 528.433594 C 290.273438 538.09375 287.132812 556.898438 296.785156 570.433594 C 306.433594 583.96875 325.21875 587.109375 338.738281 577.449219 L 340.613281 576.109375 C 354.136719 566.453125 357.273438 547.648438 347.625 534.109375 C 337.976562 520.574219 319.191406 517.433594 305.667969 527.09375 Z M 305.667969 527.09375 " clip-rule="nonzero"/></clipPath><linearGradient x1="304.377835" gradientTransform="matrix(0.592903, 0, 0, 0.593535, 177.923055, 271.686968)" y1="416.063524" x2="182.3151" gradientUnits="userSpaceOnUse" y2="529.407408" id="675fd5ba89"><stop stop-opacity="1" stop-color="rgb(30.665588%, 37.101746%, 83.650208%)" offset="0"/><stop stop-opacity="1" stop-color="rgb(30.627441%, 36.91864%, 83.621216%)" offset="0.015625"/><stop stop-opacity="1" stop-color="rgb(30.551147%, 36.553955%, 83.564758%)" offset="0.03125"/><stop stop-opacity="1" stop-color="rgb(30.474854%, 36.187744%, 83.508301%)" offset="0.046875"/><stop stop-opacity="1" stop-color="rgb(30.400085%, 35.823059%, 83.451843%)" offset="0.0625"/><stop stop-opacity="1" stop-color="rgb(30.323792%, 35.458374%, 83.395386%)" offset="0.078125"/><stop stop-opacity="1" stop-color="rgb(30.247498%, 35.093689%, 83.338928%)" offset="0.09375"/><stop stop-opacity="1" stop-color="rgb(30.172729%, 34.729004%, 83.282471%)" offset="0.109375"/><stop stop-opacity="1" stop-color="rgb(30.096436%, 34.364319%, 83.226013%)" offset="0.125"/><stop stop-opacity="1" stop-color="rgb(30.020142%, 33.998108%, 83.169556%)" offset="0.140625"/><stop stop-opacity="1" stop-color="rgb(29.943848%, 33.633423%, 83.113098%)" offset="0.15625"/><stop stop-opacity="1" stop-color="rgb(29.86908%, 33.268738%, 83.056641%)" offset="0.171875"/><stop stop-opacity="1" stop-color="rgb(29.792786%, 32.904053%, 83.000183%)" offset="0.1875"/><stop stop-opacity="1" stop-color="rgb(29.716492%, 32.539368%, 82.943726%)" offset="0.203125"/><stop stop-opacity="1" stop-color="rgb(29.640198%, 32.173157%, 82.887268%)" offset="0.21875"/><stop stop-opacity="1" stop-color="rgb(29.56543%, 31.808472%, 82.830811%)" offset="0.234375"/><stop stop-opacity="1" stop-color="rgb(29.489136%, 31.443787%, 82.774353%)" offset="0.25"/><stop stop-opacity="1" stop-color="rgb(29.412842%, 31.079102%, 82.71637%)" offset="0.265625"/><stop stop-opacity="1" stop-color="rgb(29.338074%, 30.714417%, 82.659912%)" offset="0.28125"/><stop stop-opacity="1" stop-color="rgb(29.26178%, 30.348206%, 82.603455%)" offset="0.296875"/><stop stop-opacity="1" stop-color="rgb(29.185486%, 29.983521%, 82.546997%)" offset="0.3125"/><stop stop-opacity="1" stop-color="rgb(29.109192%, 29.618835%, 82.49054%)" offset="0.328125"/><stop stop-opacity="1" stop-color="rgb(29.034424%, 29.25415%, 82.434082%)" offset="0.34375"/><stop stop-opacity="1" stop-color="rgb(28.95813%, 28.889465%, 82.377625%)" offset="0.359375"/><stop stop-opacity="1" stop-color="rgb(28.881836%, 28.523254%, 82.321167%)" offset="0.375"/><stop stop-opacity="1" stop-color="rgb(28.805542%, 28.158569%, 82.264709%)" offset="0.390625"/><stop stop-opacity="1" stop-color="rgb(28.730774%, 27.793884%, 82.208252%)" offset="0.40625"/><stop stop-opacity="1" stop-color="rgb(28.65448%, 27.429199%, 82.151794%)" offset="0.421875"/><stop stop-opacity="1" stop-color="rgb(28.578186%, 27.064514%, 82.095337%)" offset="0.4375"/><stop stop-opacity="1" stop-color="rgb(28.503418%, 26.698303%, 82.038879%)" offset="0.453125"/><stop stop-opacity="1" stop-color="rgb(28.427124%, 26.333618%, 81.982422%)" offset="0.46875"/><stop stop-opacity="1" stop-color="rgb(28.35083%, 25.968933%, 81.925964%)" offset="0.479562"/><stop stop-opacity="1" stop-color="rgb(28.312683%, 25.787354%, 81.898499%)" offset="0.484375"/><stop stop-opacity="1" stop-color="rgb(28.274536%, 25.604248%, 81.869507%)" offset="0.5"/><stop stop-opacity="1" stop-color="rgb(28.199768%, 25.239563%, 81.813049%)" offset="0.515625"/><stop stop-opacity="1" stop-color="rgb(28.123474%, 24.874878%, 81.756592%)" offset="0.520438"/><stop stop-opacity="1" stop-color="rgb(28.085327%, 24.691772%, 81.729126%)" offset="0.53125"/><stop stop-opacity="1" stop-color="rgb(28.04718%, 24.508667%, 81.700134%)" offset="0.546875"/><stop stop-opacity="1" stop-color="rgb(27.970886%, 24.143982%, 81.643677%)" offset="0.5625"/><stop stop-opacity="1" stop-color="rgb(27.896118%, 23.779297%, 81.587219%)" offset="0.578125"/><stop stop-opacity="1" stop-color="rgb(27.819824%, 23.414612%, 81.530762%)" offset="0.59375"/><stop stop-opacity="1" stop-color="rgb(27.74353%, 23.049927%, 81.474304%)" offset="0.609375"/><stop stop-opacity="1" stop-color="rgb(27.668762%, 22.683716%, 81.417847%)" offset="0.625"/><stop stop-opacity="1" stop-color="rgb(27.592468%, 22.319031%, 81.361389%)" offset="0.640625"/><stop stop-opacity="1" stop-color="rgb(27.516174%, 21.954346%, 81.304932%)" offset="0.65625"/><stop stop-opacity="1" stop-color="rgb(27.43988%, 21.589661%, 81.248474%)" offset="0.671875"/><stop stop-opacity="1" stop-color="rgb(27.365112%, 21.224976%, 81.192017%)" offset="0.6875"/><stop stop-opacity="1" stop-color="rgb(27.288818%, 20.858765%, 81.135559%)" offset="0.703125"/><stop stop-opacity="1" stop-color="rgb(27.212524%, 20.49408%, 81.079102%)" offset="0.71875"/><stop stop-opacity="1" stop-color="rgb(27.137756%, 20.129395%, 81.022644%)" offset="0.734375"/><stop stop-opacity="1" stop-color="rgb(27.061462%, 19.764709%, 80.966187%)" offset="0.75"/><stop stop-opacity="1" stop-color="rgb(26.985168%, 19.400024%, 80.909729%)" offset="0.765625"/><stop stop-opacity="1" stop-color="rgb(26.908875%, 19.033813%, 80.853271%)" offset="0.78125"/><stop stop-opacity="1" stop-color="rgb(26.834106%, 18.669128%, 80.796814%)" offset="0.796875"/><stop stop-opacity="1" stop-color="rgb(26.757812%, 18.304443%, 80.740356%)" offset="0.8125"/><stop stop-opacity="1" stop-color="rgb(26.681519%, 17.939758%, 80.683899%)" offset="0.828125"/><stop stop-opacity="1" stop-color="rgb(26.605225%, 17.575073%, 80.627441%)" offset="0.84375"/><stop stop-opacity="1" stop-color="rgb(26.530457%, 17.210388%, 80.570984%)" offset="0.859375"/><stop stop-opacity="1" stop-color="rgb(26.454163%, 16.844177%, 80.514526%)" offset="0.875"/><stop stop-opacity="1" stop-color="rgb(26.377869%, 16.479492%, 80.458069%)" offset="0.890625"/><stop stop-opacity="1" stop-color="rgb(26.319885%, 16.19873%, 80.413818%)" offset="0.90625"/><stop stop-opacity="1" stop-color="rgb(26.298523%, 16.099548%, 80.39856%)" offset="0.9375"/><stop stop-opacity="1" stop-color="rgb(26.298523%, 16.099548%, 80.39856%)" offset="1"/></linearGradient><clipPath id="e662e1a0c6"><path d="M 328 271 L 389 271 L 389 332 L 328 332 Z M 328 271 " clip-rule="nonzero"/></clipPath><clipPath id="1e65dd4291"><path d="M 375.613281 326.308594 C 389.136719 316.648438 392.273438 297.84375 382.625 284.308594 C 372.972656 270.773438 354.191406 267.628906 340.667969 277.292969 C 327.148438 286.953125 324.007812 305.753906 333.660156 319.292969 C 343.308594 332.828125 362.089844 335.96875 375.613281 326.308594 Z M 375.613281 326.308594 " clip-rule="nonzero"/></clipPath><linearGradient x1="363.561052" gradientTransform="matrix(0.592903, 0, 0, 0.593535, 177.923055, 271.686968)" y1="-4.610542" x2="244.339162" gradientUnits="userSpaceOnUse" y2="106.095403" id="d40484607e"><stop stop-opacity="1" stop-color="rgb(39.99939%, 81.999207%, 90.59906%)" offset="0"/><stop stop-opacity="1" stop-color="rgb(39.988708%, 81.948853%, 90.591431%)" offset="0.0625"/><stop stop-opacity="1" stop-color="rgb(39.941406%, 81.719971%, 90.556335%)" offset="0.078125"/><stop stop-opacity="1" stop-color="rgb(39.866638%, 81.362915%, 90.501404%)" offset="0.09375"/><stop stop-opacity="1" stop-color="rgb(39.79187%, 81.007385%, 90.444946%)" offset="0.109375"/><stop stop-opacity="1" stop-color="rgb(39.718628%, 80.65033%, 90.390015%)" offset="0.125"/><stop stop-opacity="1" stop-color="rgb(39.64386%, 80.293274%, 90.335083%)" offset="0.140625"/><stop stop-opacity="1" stop-color="rgb(39.570618%, 79.937744%, 90.280151%)" offset="0.15625"/><stop stop-opacity="1" stop-color="rgb(39.49585%, 79.580688%, 90.22522%)" offset="0.171875"/><stop stop-opacity="1" stop-color="rgb(39.422607%, 79.223633%, 90.170288%)" offset="0.1875"/><stop stop-opacity="1" stop-color="rgb(39.347839%, 78.868103%, 90.113831%)" offset="0.203125"/><stop stop-opacity="1" stop-color="rgb(39.273071%, 78.511047%, 90.058899%)" offset="0.21875"/><stop stop-opacity="1" stop-color="rgb(39.199829%, 78.155518%, 90.003967%)" offset="0.234375"/><stop stop-opacity="1" stop-color="rgb(39.125061%, 77.798462%, 89.949036%)" offset="0.25"/><stop stop-opacity="1" stop-color="rgb(39.051819%, 77.441406%, 89.894104%)" offset="0.265625"/><stop stop-opacity="1" stop-color="rgb(38.977051%, 77.085876%, 89.839172%)" offset="0.28125"/><stop stop-opacity="1" stop-color="rgb(38.903809%, 76.728821%, 89.782715%)" offset="0.296875"/><stop stop-opacity="1" stop-color="rgb(38.829041%, 76.371765%, 89.727783%)" offset="0.3125"/><stop stop-opacity="1" stop-color="rgb(38.754272%, 76.016235%, 89.672852%)" offset="0.328125"/><stop stop-opacity="1" stop-color="rgb(38.68103%, 75.65918%, 89.61792%)" offset="0.34375"/><stop stop-opacity="1" stop-color="rgb(38.606262%, 75.30365%, 89.562988%)" offset="0.359375"/><stop stop-opacity="1" stop-color="rgb(38.53302%, 74.946594%, 89.508057%)" offset="0.375"/><stop stop-opacity="1" stop-color="rgb(38.458252%, 74.589539%, 89.451599%)" offset="0.390625"/><stop stop-opacity="1" stop-color="rgb(38.38501%, 74.234009%, 89.396667%)" offset="0.40625"/><stop stop-opacity="1" stop-color="rgb(38.310242%, 73.876953%, 89.341736%)" offset="0.421875"/><stop stop-opacity="1" stop-color="rgb(38.235474%, 73.519897%, 89.286804%)" offset="0.4375"/><stop stop-opacity="1" stop-color="rgb(38.162231%, 73.164368%, 89.231873%)" offset="0.453125"/><stop stop-opacity="1" stop-color="rgb(38.087463%, 72.807312%, 89.176941%)" offset="0.46875"/><stop stop-opacity="1" stop-color="rgb(38.014221%, 72.451782%, 89.122009%)" offset="0.481407"/><stop stop-opacity="1" stop-color="rgb(37.9776%, 72.273254%, 89.094543%)" offset="0.484375"/><stop stop-opacity="1" stop-color="rgb(37.939453%, 72.094727%, 89.065552%)" offset="0.5"/><stop stop-opacity="1" stop-color="rgb(37.866211%, 71.737671%, 89.01062%)" offset="0.515625"/><stop stop-opacity="1" stop-color="rgb(37.791443%, 71.382141%, 88.955688%)" offset="0.518593"/><stop stop-opacity="1" stop-color="rgb(37.754822%, 71.203613%, 88.928223%)" offset="0.53125"/><stop stop-opacity="1" stop-color="rgb(37.718201%, 71.025085%, 88.900757%)" offset="0.546875"/><stop stop-opacity="1" stop-color="rgb(37.643433%, 70.66803%, 88.845825%)" offset="0.5625"/><stop stop-opacity="1" stop-color="rgb(37.568665%, 70.3125%, 88.790894%)" offset="0.578125"/><stop stop-opacity="1" stop-color="rgb(37.495422%, 69.955444%, 88.734436%)" offset="0.59375"/><stop stop-opacity="1" stop-color="rgb(37.420654%, 69.599915%, 88.679504%)" offset="0.609375"/><stop stop-opacity="1" stop-color="rgb(37.347412%, 69.242859%, 88.624573%)" offset="0.625"/><stop stop-opacity="1" stop-color="rgb(37.272644%, 68.885803%, 88.569641%)" offset="0.640625"/><stop stop-opacity="1" stop-color="rgb(37.199402%, 68.530273%, 88.514709%)" offset="0.65625"/><stop stop-opacity="1" stop-color="rgb(37.124634%, 68.173218%, 88.459778%)" offset="0.671875"/><stop stop-opacity="1" stop-color="rgb(37.049866%, 67.816162%, 88.40332%)" offset="0.6875"/><stop stop-opacity="1" stop-color="rgb(36.976624%, 67.460632%, 88.348389%)" offset="0.703125"/><stop stop-opacity="1" stop-color="rgb(36.901855%, 67.103577%, 88.293457%)" offset="0.71875"/><stop stop-opacity="1" stop-color="rgb(36.828613%, 66.748047%, 88.238525%)" offset="0.734375"/><stop stop-opacity="1" stop-color="rgb(36.753845%, 66.390991%, 88.183594%)" offset="0.75"/><stop stop-opacity="1" stop-color="rgb(36.680603%, 66.033936%, 88.128662%)" offset="0.765625"/><stop stop-opacity="1" stop-color="rgb(36.605835%, 65.678406%, 88.072205%)" offset="0.78125"/><stop stop-opacity="1" stop-color="rgb(36.531067%, 65.32135%, 88.017273%)" offset="0.796875"/><stop stop-opacity="1" stop-color="rgb(36.457825%, 64.964294%, 87.962341%)" offset="0.8125"/><stop stop-opacity="1" stop-color="rgb(36.383057%, 64.608765%, 87.90741%)" offset="0.828125"/><stop stop-opacity="1" stop-color="rgb(36.309814%, 64.251709%, 87.852478%)" offset="0.84375"/><stop stop-opacity="1" stop-color="rgb(36.235046%, 63.896179%, 87.797546%)" offset="0.859375"/><stop stop-opacity="1" stop-color="rgb(36.161804%, 63.539124%, 87.742615%)" offset="0.875"/><stop stop-opacity="1" stop-color="rgb(36.087036%, 63.182068%, 87.686157%)" offset="0.890625"/><stop stop-opacity="1" stop-color="rgb(36.012268%, 62.826538%, 87.631226%)" offset="0.90625"/><stop stop-opacity="1" stop-color="rgb(35.939026%, 62.469482%, 87.576294%)" offset="0.921875"/><stop stop-opacity="1" stop-color="rgb(35.864258%, 62.112427%, 87.521362%)" offset="0.9375"/><stop stop-opacity="1" stop-color="rgb(35.791016%, 61.756897%, 87.466431%)" offset="0.953125"/><stop stop-opacity="1" stop-color="rgb(35.716248%, 61.399841%, 87.411499%)" offset="0.96875"/><stop stop-opacity="1" stop-color="rgb(35.643005%, 61.044312%, 87.355042%)" offset="0.984375"/><stop stop-opacity="1" stop-color="rgb(35.568237%, 60.687256%, 87.30011%)" offset="1"/></linearGradient></defs><rect x="-168" width="2016" fill="#ffffff" y="-94.499999" height="1133.999992" fill-opacity="1"/><rect x="-168" width="2016" fill="#f4f5f7" y="-94.499999" height="1133.999992" fill-opacity="1"/><g clip-path="url(#6b9c1103ab)"><g clip-path="url(#23a52747be)"><path fill="url(#e42f64a5e3)" d="M 173.871094 311.152344 L 173.871094 538.179688 L 492.378906 538.179688 L 492.378906 311.152344 Z M 173.871094 311.152344 " fill-rule="nonzero"/></g></g><g clip-path="url(#5f9913e327)"><g clip-path="url(#f3a5205107)"><path fill="url(#675fd5ba89)" d="M 287.132812 517.433594 L 287.132812 587.109375 L 357.273438 587.109375 L 357.273438 517.433594 Z M 287.132812 517.433594 " fill-rule="nonzero"/></g></g><g clip-path="url(#e662e1a0c6)"><g clip-path="url(#1e65dd4291)"><path fill="url(#d40484607e)" d="M 324.007812 267.652344 L 324.007812 335.96875 L 392.273438 335.96875 L 392.273438 267.652344 Z M 324.007812 267.652344 " fill-rule="nonzero"/></g></g><g fill="#2c2d2f" fill-opacity="1"><g transform="translate(567.210389, 421.693389)"><g><path d="M 72.65625 -98.28125 L 72.65625 -79.09375 L 32.625 -79.09375 L 32.625 -58.375 L 62.578125 -58.375 L 62.578125 -39.765625 L 32.625 -39.765625 L 32.625 0 L 8.6875 0 L 8.6875 -98.28125 Z M 72.65625 -98.28125 "/></g></g></g><g fill="#2c2d2f" fill-opacity="1"><g transform="translate(638.886099, 421.693389)"><g><path d="M 32.625 -98.28125 L 32.625 0 L 8.6875 0 L 8.6875 -98.28125 Z M 32.625 -98.28125 "/></g></g></g><g fill="#2c2d2f" fill-opacity="1"><g transform="translate(675.283774, 421.693389)"><g><path d="M 96.59375 0 L 72.65625 0 L 32.625 -60.625 L 32.625 0 L 8.6875 0 L 8.6875 -98.28125 L 32.625 -98.28125 L 72.65625 -37.375 L 72.65625 -98.28125 L 96.59375 -98.28125 Z M 96.59375 0 "/></g></g></g><g fill="#2c2d2f" fill-opacity="1"><g transform="translate(775.657872, 421.693389)"><g><path d="M 79.375 -98.28125 L 79.375 -79.09375 L 53.34375 -79.09375 L 53.34375 0 L 29.40625 0 L 29.40625 -79.09375 L 3.359375 -79.09375 L 3.359375 -98.28125 Z M 79.375 -98.28125 "/></g></g></g><g fill="#2c2d2f" fill-opacity="1"><g transform="translate(853.493234, 421.693389)"><g><path d="M 32.625 -79.09375 L 32.625 -59.21875 L 64.6875 -59.21875 L 64.6875 -40.734375 L 32.625 -40.734375 L 32.625 -19.1875 L 68.875 -19.1875 L 68.875 0 L 8.6875 0 L 8.6875 -98.28125 L 68.875 -98.28125 L 68.875 -79.09375 Z M 32.625 -79.09375 "/></g></g></g><g fill="#2c2d2f" fill-opacity="1"><g transform="translate(924.328977, 421.693389)"><g><path d="M 32.625 -18.484375 L 63.984375 -18.484375 L 63.984375 0 L 8.6875 0 L 8.6875 -98.28125 L 32.625 -98.28125 Z M 32.625 -18.484375 "/></g></g></g><g fill="#2c2d2f" fill-opacity="1"><g transform="translate(986.20521, 421.693389)"><g><path d="M 32.625 -18.484375 L 63.984375 -18.484375 L 63.984375 0 L 8.6875 0 L 8.6875 -98.28125 L 32.625 -98.28125 Z M 32.625 -18.484375 "/></g></g></g><g fill="#2c2d2f" fill-opacity="1"><g transform="translate(1048.081443, 421.693389)"><g><path d="M 32.625 -98.28125 L 32.625 0 L 8.6875 0 L 8.6875 -98.28125 Z M 32.625 -98.28125 "/></g></g></g><g fill="#2c2d2f" fill-opacity="1"><g transform="translate(1084.487707, 421.693389)"><g><path d="M 84.703125 -69.296875 C 81.992188 -74.992188 78.070312 -79.40625 72.9375 -82.53125 C 67.800781 -85.65625 61.828125 -87.21875 55.015625 -87.21875 C 48.203125 -87.21875 42.066406 -85.65625 36.609375 -82.53125 C 31.148438 -79.40625 26.859375 -74.925781 23.734375 -69.09375 C 20.609375 -63.257812 19.046875 -56.515625 19.046875 -48.859375 C 19.046875 -41.203125 20.609375 -34.476562 23.734375 -28.6875 C 26.859375 -22.90625 31.148438 -18.453125 36.609375 -15.328125 C 42.066406 -12.203125 48.203125 -10.640625 55.015625 -10.640625 C 64.535156 -10.640625 72.375 -13.484375 78.53125 -19.171875 C 84.695312 -24.867188 88.289062 -32.570312 89.3125 -42.28125 L 50.40625 -42.28125 L 50.40625 -52.640625 L 102.90625 -52.640625 L 102.90625 -42.84375 C 102.15625 -34.8125 99.632812 -27.457031 95.34375 -20.78125 C 91.050781 -14.113281 85.40625 -8.84375 78.40625 -4.96875 C 71.40625 -1.09375 63.609375 0.84375 55.015625 0.84375 C 45.960938 0.84375 37.703125 -1.28125 30.234375 -5.53125 C 22.773438 -9.78125 16.875 -15.679688 12.53125 -23.234375 C 8.1875 -30.796875 6.015625 -39.335938 6.015625 -48.859375 C 6.015625 -58.378906 8.1875 -66.941406 12.53125 -74.546875 C 16.875 -82.148438 22.773438 -88.078125 30.234375 -92.328125 C 37.703125 -96.578125 45.960938 -98.703125 55.015625 -98.703125 C 65.378906 -98.703125 74.550781 -96.132812 82.53125 -91 C 90.507812 -85.863281 96.316406 -78.628906 99.953125 -69.296875 Z M 84.703125 -69.296875 "/></g></g></g><g fill="#2c2d2f" fill-opacity="1"><g transform="translate(1188.50161, 421.693389)"><g><path d="M 23.515625 -87.21875 L 23.515625 -54.59375 L 59.078125 -54.59375 L 59.078125 -44.09375 L 23.515625 -44.09375 L 23.515625 -10.5 L 63.28125 -10.5 L 63.28125 0 L 10.78125 0 L 10.78125 -97.71875 L 63.28125 -97.71875 L 63.28125 -87.21875 Z M 23.515625 -87.21875 "/></g></g></g><g fill="#2c2d2f" fill-opacity="1"><g transform="translate(1255.417592, 421.693389)"><g><path d="M 87.5 0 L 74.765625 0 L 23.515625 -77.703125 L 23.515625 0 L 10.78125 0 L 10.78125 -97.71875 L 23.515625 -97.71875 L 74.765625 -20.15625 L 74.765625 -97.71875 L 87.5 -97.71875 Z M 87.5 0 "/></g></g></g><g fill="#5894dd" fill-opacity="1"><g transform="translate(622.945821, 511.800019)"><g><path d="M 23.015625 -6.796875 L 8.3125 -6.796875 L 5.421875 0 L -0.203125 0 L 13.015625 -29.40625 L 18.390625 -29.40625 L 31.671875 0 L 25.953125 0 Z M 21.203125 -11.09375 L 15.671875 -23.9375 L 10.15625 -11.09375 Z M 21.203125 -11.09375 "/></g></g></g><g fill="#5894dd" fill-opacity="1"><g transform="translate(661.123818, 511.800019)"><g><path d="M 3.953125 -29.40625 L 9.40625 -29.40625 L 9.40625 0 L 3.953125 0 Z M 3.953125 -29.40625 "/></g></g></g><g fill="#5894dd" fill-opacity="1"><g transform="translate(681.241815, 511.800019)"><g/></g></g><g fill="#5894dd" fill-opacity="1"><g transform="translate(699.553809, 511.800019)"><g><path d="M 23.1875 0 L 17.171875 -8.609375 C 16.921875 -8.578125 16.546875 -8.5625 16.046875 -8.5625 L 9.40625 -8.5625 L 9.40625 0 L 3.953125 0 L 3.953125 -29.40625 L 16.046875 -29.40625 C 18.585938 -29.40625 20.800781 -28.984375 22.6875 -28.140625 C 24.582031 -27.296875 26.035156 -26.085938 27.046875 -24.515625 C 28.054688 -22.953125 28.5625 -21.09375 28.5625 -18.9375 C 28.5625 -16.726562 28.019531 -14.828125 26.9375 -13.234375 C 25.863281 -11.640625 24.316406 -10.445312 22.296875 -9.65625 L 29.0625 0 Z M 23.0625 -18.9375 C 23.0625 -20.8125 22.441406 -22.253906 21.203125 -23.265625 C 19.972656 -24.273438 18.171875 -24.78125 15.796875 -24.78125 L 9.40625 -24.78125 L 9.40625 -13.0625 L 15.796875 -13.0625 C 18.171875 -13.0625 19.972656 -13.570312 21.203125 -14.59375 C 22.441406 -15.613281 23.0625 -17.0625 23.0625 -18.9375 Z M 23.0625 -18.9375 "/></g></g></g><g fill="#5894dd" fill-opacity="1"><g transform="translate(736.975798, 511.800019)"><g><path d="M 26 -4.578125 L 26 0 L 3.953125 0 L 3.953125 -29.40625 L 25.40625 -29.40625 L 25.40625 -24.828125 L 9.40625 -24.828125 L 9.40625 -17.171875 L 23.609375 -17.171875 L 23.609375 -12.6875 L 9.40625 -12.6875 L 9.40625 -4.578125 Z M 26 -4.578125 "/></g></g></g><g fill="#5894dd" fill-opacity="1"><g transform="translate(771.835781, 511.800019)"><g><path d="M 13.0625 0.421875 C 10.789062 0.421875 8.597656 0.0976562 6.484375 -0.546875 C 4.367188 -1.191406 2.695312 -2.046875 1.46875 -3.109375 L 3.359375 -7.34375 C 4.566406 -6.394531 6.046875 -5.617188 7.796875 -5.015625 C 9.546875 -4.410156 11.300781 -4.109375 13.0625 -4.109375 C 15.25 -4.109375 16.878906 -4.457031 17.953125 -5.15625 C 19.035156 -5.863281 19.578125 -6.789062 19.578125 -7.9375 C 19.578125 -8.78125 19.273438 -9.472656 18.671875 -10.015625 C 18.066406 -10.566406 17.300781 -10.992188 16.375 -11.296875 C 15.457031 -11.609375 14.195312 -11.957031 12.59375 -12.34375 C 10.351562 -12.875 8.539062 -13.40625 7.15625 -13.9375 C 5.769531 -14.46875 4.578125 -15.300781 3.578125 -16.4375 C 2.585938 -17.570312 2.09375 -19.109375 2.09375 -21.046875 C 2.09375 -22.671875 2.535156 -24.144531 3.421875 -25.46875 C 4.304688 -26.800781 5.632812 -27.859375 7.40625 -28.640625 C 9.1875 -29.421875 11.363281 -29.8125 13.9375 -29.8125 C 15.726562 -29.8125 17.492188 -29.585938 19.234375 -29.140625 C 20.972656 -28.691406 22.472656 -28.050781 23.734375 -27.21875 L 22.015625 -22.96875 C 20.722656 -23.726562 19.375 -24.300781 17.96875 -24.6875 C 16.570312 -25.082031 15.21875 -25.28125 13.90625 -25.28125 C 11.75 -25.28125 10.144531 -24.914062 9.09375 -24.1875 C 8.039062 -23.457031 7.515625 -22.492188 7.515625 -21.296875 C 7.515625 -20.453125 7.816406 -19.765625 8.421875 -19.234375 C 9.023438 -18.703125 9.785156 -18.28125 10.703125 -17.96875 C 11.628906 -17.664062 12.890625 -17.316406 14.484375 -16.921875 C 16.671875 -16.421875 18.460938 -15.894531 19.859375 -15.34375 C 21.265625 -14.800781 22.460938 -13.96875 23.453125 -12.84375 C 24.453125 -11.726562 24.953125 -10.21875 24.953125 -8.3125 C 24.953125 -6.6875 24.507812 -5.21875 23.625 -3.90625 C 22.738281 -2.59375 21.398438 -1.539062 19.609375 -0.75 C 17.816406 0.03125 15.632812 0.421875 13.0625 0.421875 Z M 13.0625 0.421875 "/></g></g></g><g fill="#5894dd" fill-opacity="1"><g transform="translate(804.973772, 511.800019)"><g><path d="M 16.59375 0.421875 C 12.53125 0.421875 9.363281 -0.71875 7.09375 -3 C 4.832031 -5.28125 3.703125 -8.550781 3.703125 -12.8125 L 3.703125 -29.40625 L 9.15625 -29.40625 L 9.15625 -13.015625 C 9.15625 -7.253906 11.644531 -4.375 16.625 -4.375 C 21.582031 -4.375 24.0625 -7.253906 24.0625 -13.015625 L 24.0625 -29.40625 L 29.4375 -29.40625 L 29.4375 -12.8125 C 29.4375 -8.550781 28.3125 -5.28125 26.0625 -3 C 23.8125 -0.71875 20.65625 0.421875 16.59375 0.421875 Z M 16.59375 0.421875 "/></g></g></g><g fill="#5894dd" fill-opacity="1"><g transform="translate(844.831757, 511.800019)"><g><path d="M 30.953125 0 L 30.90625 -19.484375 L 21.25 -3.359375 L 18.8125 -3.359375 L 9.15625 -19.234375 L 9.15625 0 L 3.953125 0 L 3.953125 -29.40625 L 8.4375 -29.40625 L 20.125 -9.90625 L 31.578125 -29.40625 L 36.078125 -29.40625 L 36.125 0 Z M 30.953125 0 "/></g></g></g><g fill="#5894dd" fill-opacity="1"><g transform="translate(891.661756, 511.800019)"><g><path d="M 26 -4.578125 L 26 0 L 3.953125 0 L 3.953125 -29.40625 L 25.40625 -29.40625 L 25.40625 -24.828125 L 9.40625 -24.828125 L 9.40625 -17.171875 L 23.609375 -17.171875 L 23.609375 -12.6875 L 9.40625 -12.6875 L 9.40625 -4.578125 Z M 26 -4.578125 "/></g></g></g><g fill="#5894dd" fill-opacity="1"><g transform="translate(926.521739, 511.800019)"><g/></g></g><g fill="#5894dd" fill-opacity="1"><g transform="translate(944.833727, 511.800019)"><g><path d="M 26 -4.578125 L 26 0 L 3.953125 0 L 3.953125 -29.40625 L 25.40625 -29.40625 L 25.40625 -24.828125 L 9.40625 -24.828125 L 9.40625 -17.171875 L 23.609375 -17.171875 L 23.609375 -12.6875 L 9.40625 -12.6875 L 9.40625 -4.578125 Z M 26 -4.578125 "/></g></g></g><g fill="#5894dd" fill-opacity="1"><g transform="translate(979.69371, 511.800019)"><g><path d="M 30.828125 -29.40625 L 18.015625 0 L 12.640625 0 L -0.203125 -29.40625 L 5.71875 -29.40625 L 15.5 -6.71875 L 25.375 -29.40625 Z M 30.828125 -29.40625 "/></g></g></g><g fill="#5894dd" fill-opacity="1"><g transform="translate(1017.031706, 511.800019)"><g><path d="M 23.015625 -6.796875 L 8.3125 -6.796875 L 5.421875 0 L -0.203125 0 L 13.015625 -29.40625 L 18.390625 -29.40625 L 31.671875 0 L 25.953125 0 Z M 21.203125 -11.09375 L 15.671875 -23.9375 L 10.15625 -11.09375 Z M 21.203125 -11.09375 "/></g></g></g><g fill="#5894dd" fill-opacity="1"><g transform="translate(1055.209698, 511.800019)"><g><path d="M 3.953125 -29.40625 L 9.40625 -29.40625 L 9.40625 -4.625 L 24.78125 -4.625 L 24.78125 0 L 3.953125 0 Z M 3.953125 -29.40625 "/></g></g></g><g fill="#5894dd" fill-opacity="1"><g transform="translate(1087.087672, 511.800019)"><g><path d="M 16.59375 0.421875 C 12.53125 0.421875 9.363281 -0.71875 7.09375 -3 C 4.832031 -5.28125 3.703125 -8.550781 3.703125 -12.8125 L 3.703125 -29.40625 L 9.15625 -29.40625 L 9.15625 -13.015625 C 9.15625 -7.253906 11.644531 -4.375 16.625 -4.375 C 21.582031 -4.375 24.0625 -7.253906 24.0625 -13.015625 L 24.0625 -29.40625 L 29.4375 -29.40625 L 29.4375 -12.8125 C 29.4375 -8.550781 28.3125 -5.28125 26.0625 -3 C 23.8125 -0.71875 20.65625 0.421875 16.59375 0.421875 Z M 16.59375 0.421875 "/></g></g></g><g fill="#5894dd" fill-opacity="1"><g transform="translate(1126.945656, 511.800019)"><g><path d="M 23.015625 -6.796875 L 8.3125 -6.796875 L 5.421875 0 L -0.203125 0 L 13.015625 -29.40625 L 18.390625 -29.40625 L 31.671875 0 L 25.953125 0 Z M 21.203125 -11.09375 L 15.671875 -23.9375 L 10.15625 -11.09375 Z M 21.203125 -11.09375 "/></g></g></g><g fill="#5894dd" fill-opacity="1"><g transform="translate(1165.123649, 511.800019)"><g><path d="M 9.90625 -24.78125 L 0.171875 -24.78125 L 0.171875 -29.40625 L 25.109375 -29.40625 L 25.109375 -24.78125 L 15.375 -24.78125 L 15.375 0 L 9.90625 0 Z M 9.90625 -24.78125 "/></g></g></g><g fill="#5894dd" fill-opacity="1"><g transform="translate(1197.127645, 511.800019)"><g><path d="M 17.6875 0.421875 C 14.6875 0.421875 11.984375 -0.226562 9.578125 -1.53125 C 7.171875 -2.832031 5.28125 -4.640625 3.90625 -6.953125 C 2.53125 -9.265625 1.84375 -11.847656 1.84375 -14.703125 C 1.84375 -17.554688 2.53125 -20.132812 3.90625 -22.4375 C 5.28125 -24.75 7.171875 -26.554688 9.578125 -27.859375 C 11.984375 -29.160156 14.6875 -29.8125 17.6875 -29.8125 C 20.675781 -29.8125 23.375 -29.160156 25.78125 -27.859375 C 28.195312 -26.554688 30.085938 -24.757812 31.453125 -22.46875 C 32.828125 -20.175781 33.515625 -17.585938 33.515625 -14.703125 C 33.515625 -11.816406 32.828125 -9.222656 31.453125 -6.921875 C 30.085938 -4.628906 28.195312 -2.832031 25.78125 -1.53125 C 23.375 -0.226562 20.675781 0.421875 17.6875 0.421875 Z M 17.6875 -4.375 C 19.644531 -4.375 21.40625 -4.8125 22.96875 -5.6875 C 24.539062 -6.570312 25.773438 -7.804688 26.671875 -9.390625 C 27.566406 -10.972656 28.015625 -12.742188 28.015625 -14.703125 C 28.015625 -16.660156 27.566406 -18.429688 26.671875 -20.015625 C 25.773438 -21.597656 24.539062 -22.828125 22.96875 -23.703125 C 21.40625 -24.585938 19.644531 -25.03125 17.6875 -25.03125 C 15.71875 -25.03125 13.945312 -24.585938 12.375 -23.703125 C 10.8125 -22.828125 9.582031 -21.597656 8.6875 -20.015625 C 7.789062 -18.429688 7.34375 -16.660156 7.34375 -14.703125 C 7.34375 -12.742188 7.789062 -10.972656 8.6875 -9.390625 C 9.582031 -7.804688 10.8125 -6.570312 12.375 -5.6875 C 13.945312 -4.8125 15.71875 -4.375 17.6875 -4.375 Z M 17.6875 -4.375 "/></g></g></g><g fill="#5894dd" fill-opacity="1"><g transform="translate(1239.211643, 511.800019)"><g><path d="M 23.1875 0 L 17.171875 -8.609375 C 16.921875 -8.578125 16.546875 -8.5625 16.046875 -8.5625 L 9.40625 -8.5625 L 9.40625 0 L 3.953125 0 L 3.953125 -29.40625 L 16.046875 -29.40625 C 18.585938 -29.40625 20.800781 -28.984375 22.6875 -28.140625 C 24.582031 -27.296875 26.035156 -26.085938 27.046875 -24.515625 C 28.054688 -22.953125 28.5625 -21.09375 28.5625 -18.9375 C 28.5625 -16.726562 28.019531 -14.828125 26.9375 -13.234375 C 25.863281 -11.640625 24.316406 -10.445312 22.296875 -9.65625 L 29.0625 0 Z M 23.0625 -18.9375 C 23.0625 -20.8125 22.441406 -22.253906 21.203125 -23.265625 C 19.972656 -24.273438 18.171875 -24.78125 15.796875 -24.78125 L 9.40625 -24.78125 L 9.40625 -13.0625 L 15.796875 -13.0625 C 18.171875 -13.0625 19.972656 -13.570312 21.203125 -14.59375 C 22.441406 -15.613281 23.0625 -17.0625 23.0625 -18.9375 Z M 23.0625 -18.9375 "/></g></g></g></svg>