<?xml version="1.0" encoding="utf-8"?>
<!-- Generator: Adobe Illustrator 26.0.2, SVG Export Plug-In . SVG Version: 6.00 Build 0)  -->
<svg version="1.1"
	 id="Graphics" inkscape:export-filename="goldman sachs propik 2024.png" xmlns:inkscape="http://www.inkscape.org/namespaces/inkscape" xmlns:sodipodi="http://sodipodi.sourceforge.net/DTD/sodipodi-0.dtd" xmlns:svg="http://www.w3.org/2000/svg"
	 xmlns="http://www.w3.org/2000/svg" xmlns:xlink="http://www.w3.org/1999/xlink" x="0px" y="0px" viewBox="0 0 512 512"
	 style="enable-background:new 0 0 512 512;" xml:space="preserve">
<style type="text/css">
	.st0{fill:#7297C5;}
	.st1{fill-opacity:0.95;}
</style>
<sodipodi:namedview  bordercolor="#eeeeee" borderopacity="1" id="namedview1" inkscape:current-layer="Graphics" inkscape:cx="540.14085" inkscape:cy="540.14085" inkscape:deskcolor="#d1d1d1" inkscape:pagecheckerboard="0" inkscape:pageopacity="0" inkscape:showpageshadow="0" inkscape:window-height="991" inkscape:window-maximized="1" inkscape:window-width="1920" inkscape:window-x="-9" inkscape:window-y="-9" inkscape:zoom="0.71" pagecolor="#505050">
	</sodipodi:namedview>
<g>
	<rect id="rect2" x="31" y="31" class="st0" width="450" height="450"/>
	<path id="path1" sodipodi:nodetypes="ssssssccsscccssssccssscccssssssscccs" class="st1" d="M194.3,135.4
		c-27.7,0-50.9,7.4-67.9,22.7c-23.2,20.8-35.4,55.6-35.4,100.2c0,60.3,12,121.2,96,121.2h148.5c56.2,0,85.2-27.8,85.2-69.8
		c0-32.7-19.2-49.8-49.4-70.8L338.1,216c-21.2-14.7-27.3-25.7-27.3-39.7c0-17.7,11.7-29.2,34.9-29.2c23.8,0,40.6,14.8,53.2,54.5
		h11.9v-66.2h-64.2c-22.5,0-44.8,5.1-60.3,21.1c-9.3,9.6-15.4,22.9-15.4,40.9c0,13.2,2.1,23,7.4,32.8c8.9,16.6,23.5,27,29.8,31.3
		l25.9,17.8c21.1,14.6,41.2,27.5,41.2,51.4c0,23.7-16.8,37-43.3,37c-49.5,0-64.4-42.9-64.4-96.9v-19.7h-78.8v11.4
		c21.1,3.3,31.7,9.3,31.7,31.6v28.1c0,28.8-7.4,45.5-32.4,45.5c-11.1,0-18.5-3.6-24.2-10.8c-10.2-12.9-14.3-41.7-14.3-98.6
		c0-29.1,1.9-52.2,5.6-69.6c6-28.6,17.5-42.3,36-42.3c22,0,33.8,16.9,47,55.2l11.9,0.1v-66.3H194.3z"/>
</g>
</svg>
