<svg xmlns="http://www.w3.org/2000/svg" xmlns:xlink="http://www.w3.org/1999/xlink" width="1000" zoomAndPan="magnify" viewBox="0 0 750 187.499995" height="250" preserveAspectRatio="xMidYMid meet" version="1.0"><defs><g/><clipPath id="519466a29b"><path d="M 0.996094 0 L 749 0 L 749 187 L 0.996094 187 Z M 0.996094 0 " clip-rule="nonzero"/></clipPath><clipPath id="81a572026e"><path d="M 3 27 L 186 27 L 186 159 L 3 159 Z M 3 27 " clip-rule="nonzero"/></clipPath><clipPath id="25db713280"><path d="M 178.136719 124.046875 L 134.628906 155.058594 C 131.519531 157.273438 127.941406 158.339844 124.394531 158.339844 C 118.886719 158.339844 113.457031 155.773438 110.015625 150.953125 C 104.351562 143.03125 106.195312 132.023438 114.128906 126.367188 L 121.941406 120.796875 L 123.804688 119.46875 C 126.304688 117.691406 127.648438 114.875 127.648438 112.011719 C 127.648438 110.308594 127.175781 108.589844 126.183594 107.058594 C 123.347656 102.671875 117.417969 101.539062 113.160156 104.574219 L 49.847656 149.703125 C 46.742188 151.914062 43.160156 152.980469 39.613281 152.980469 C 34.105469 152.980469 28.679688 150.414062 25.234375 145.59375 C 19.574219 137.671875 21.417969 126.664062 29.347656 121.011719 L 39.871094 113.511719 L 42.859375 111.378906 C 46.84375 108.539062 47.890625 103.078125 45.238281 98.96875 C 42.402344 94.582031 36.472656 93.449219 32.214844 96.480469 L 31.335938 97.113281 C 23.402344 102.765625 12.382812 100.925781 6.722656 93.003906 C 1.058594 85.082031 2.902344 74.074219 10.835938 68.421875 L 63.171875 31.113281 C 71.105469 25.460938 82.125 27.300781 87.785156 35.222656 C 93.449219 43.144531 91.605469 54.152344 83.671875 59.804688 L 62.621094 74.8125 C 58.339844 77.863281 57.503906 83.882812 60.792969 87.980469 C 63.832031 91.769531 69.308594 92.53125 73.265625 89.707031 L 74.765625 88.640625 L 143.324219 39.773438 C 146.429688 37.558594 150.011719 36.492188 153.558594 36.492188 C 159.070312 36.492188 164.496094 39.058594 167.9375 43.882812 C 173.597656 51.804688 171.757812 62.808594 163.828125 68.464844 L 144.230469 82.429688 L 143.570312 82.902344 C 139.289062 85.953125 138.449219 91.96875 141.738281 96.070312 C 144.777344 99.863281 150.253906 100.621094 154.210938 97.800781 L 154.886719 97.320312 L 157.640625 95.359375 C 165.574219 89.703125 176.589844 91.542969 182.25 99.46875 C 187.910156 107.386719 186.070312 118.394531 178.136719 124.046875 Z M 178.136719 124.046875 " clip-rule="nonzero"/></clipPath><linearGradient x1="507.583233" gradientTransform="matrix(0.347827, 0, 0, 0.347392, 3.436855, 2.362261)" y1="41.958834" x2="28.38855" gradientUnits="userSpaceOnUse" y2="486.924932" id="0f8661b2c2"><stop stop-opacity="1" stop-color="rgb(39.99939%, 81.999207%, 90.59906%)" offset="0"/><stop stop-opacity="1" stop-color="rgb(39.99939%, 81.999207%, 90.59906%)" offset="0.125"/><stop stop-opacity="1" stop-color="rgb(39.94751%, 81.750488%, 90.560913%)" offset="0.128906"/><stop stop-opacity="1" stop-color="rgb(39.89563%, 81.50177%, 90.522766%)" offset="0.132812"/><stop stop-opacity="1" stop-color="rgb(39.820862%, 81.143188%, 90.466309%)" offset="0.136719"/><stop stop-opacity="1" stop-color="rgb(39.746094%, 80.784607%, 90.411377%)" offset="0.140625"/><stop stop-opacity="1" stop-color="rgb(39.671326%, 80.426025%, 90.354919%)" offset="0.144531"/><stop stop-opacity="1" stop-color="rgb(39.598083%, 80.06897%, 90.299988%)" offset="0.148438"/><stop stop-opacity="1" stop-color="rgb(39.523315%, 79.710388%, 90.245056%)" offset="0.152344"/><stop stop-opacity="1" stop-color="rgb(39.448547%, 79.351807%, 90.190125%)" offset="0.15625"/><stop stop-opacity="1" stop-color="rgb(39.373779%, 78.993225%, 90.133667%)" offset="0.160156"/><stop stop-opacity="1" stop-color="rgb(39.300537%, 78.636169%, 90.078735%)" offset="0.164063"/><stop stop-opacity="1" stop-color="rgb(39.225769%, 78.277588%, 90.022278%)" offset="0.167969"/><stop stop-opacity="1" stop-color="rgb(39.151001%, 77.919006%, 89.967346%)" offset="0.171875"/><stop stop-opacity="1" stop-color="rgb(39.076233%, 77.560425%, 89.912415%)" offset="0.175781"/><stop stop-opacity="1" stop-color="rgb(39.001465%, 77.203369%, 89.857483%)" offset="0.179688"/><stop stop-opacity="1" stop-color="rgb(38.926697%, 76.844788%, 89.801025%)" offset="0.183594"/><stop stop-opacity="1" stop-color="rgb(38.853455%, 76.486206%, 89.746094%)" offset="0.1875"/><stop stop-opacity="1" stop-color="rgb(38.778687%, 76.127625%, 89.689636%)" offset="0.191406"/><stop stop-opacity="1" stop-color="rgb(38.703918%, 75.770569%, 89.634705%)" offset="0.195313"/><stop stop-opacity="1" stop-color="rgb(38.62915%, 75.411987%, 89.579773%)" offset="0.199219"/><stop stop-opacity="1" stop-color="rgb(38.555908%, 75.053406%, 89.524841%)" offset="0.203125"/><stop stop-opacity="1" stop-color="rgb(38.48114%, 74.694824%, 89.468384%)" offset="0.207031"/><stop stop-opacity="1" stop-color="rgb(38.406372%, 74.336243%, 89.413452%)" offset="0.210938"/><stop stop-opacity="1" stop-color="rgb(38.331604%, 73.977661%, 89.356995%)" offset="0.214844"/><stop stop-opacity="1" stop-color="rgb(38.256836%, 73.620605%, 89.302063%)" offset="0.21875"/><stop stop-opacity="1" stop-color="rgb(38.182068%, 73.262024%, 89.247131%)" offset="0.222656"/><stop stop-opacity="1" stop-color="rgb(38.108826%, 72.903442%, 89.1922%)" offset="0.226563"/><stop stop-opacity="1" stop-color="rgb(38.034058%, 72.544861%, 89.135742%)" offset="0.230469"/><stop stop-opacity="1" stop-color="rgb(37.95929%, 72.187805%, 89.080811%)" offset="0.234375"/><stop stop-opacity="1" stop-color="rgb(37.884521%, 71.829224%, 89.024353%)" offset="0.238281"/><stop stop-opacity="1" stop-color="rgb(37.811279%, 71.470642%, 88.969421%)" offset="0.242188"/><stop stop-opacity="1" stop-color="rgb(37.736511%, 71.112061%, 88.91449%)" offset="0.246094"/><stop stop-opacity="1" stop-color="rgb(37.661743%, 70.755005%, 88.859558%)" offset="0.25"/><stop stop-opacity="1" stop-color="rgb(37.586975%, 70.396423%, 88.803101%)" offset="0.253906"/><stop stop-opacity="1" stop-color="rgb(37.512207%, 70.037842%, 88.748169%)" offset="0.257813"/><stop stop-opacity="1" stop-color="rgb(37.437439%, 69.67926%, 88.691711%)" offset="0.261719"/><stop stop-opacity="1" stop-color="rgb(37.364197%, 69.322205%, 88.63678%)" offset="0.265625"/><stop stop-opacity="1" stop-color="rgb(37.289429%, 68.963623%, 88.581848%)" offset="0.269531"/><stop stop-opacity="1" stop-color="rgb(37.214661%, 68.605042%, 88.526917%)" offset="0.273438"/><stop stop-opacity="1" stop-color="rgb(37.139893%, 68.24646%, 88.470459%)" offset="0.277344"/><stop stop-opacity="1" stop-color="rgb(37.06665%, 67.889404%, 88.415527%)" offset="0.28125"/><stop stop-opacity="1" stop-color="rgb(36.991882%, 67.530823%, 88.35907%)" offset="0.285156"/><stop stop-opacity="1" stop-color="rgb(36.917114%, 67.172241%, 88.304138%)" offset="0.289062"/><stop stop-opacity="1" stop-color="rgb(36.842346%, 66.81366%, 88.249207%)" offset="0.292969"/><stop stop-opacity="1" stop-color="rgb(36.767578%, 66.456604%, 88.194275%)" offset="0.296875"/><stop stop-opacity="1" stop-color="rgb(36.69281%, 66.098022%, 88.137817%)" offset="0.300781"/><stop stop-opacity="1" stop-color="rgb(36.619568%, 65.739441%, 88.082886%)" offset="0.304688"/><stop stop-opacity="1" stop-color="rgb(36.5448%, 65.380859%, 88.026428%)" offset="0.308594"/><stop stop-opacity="1" stop-color="rgb(36.470032%, 65.023804%, 87.971497%)" offset="0.3125"/><stop stop-opacity="1" stop-color="rgb(36.395264%, 64.665222%, 87.915039%)" offset="0.316406"/><stop stop-opacity="1" stop-color="rgb(36.320496%, 64.306641%, 87.860107%)" offset="0.320312"/><stop stop-opacity="1" stop-color="rgb(36.245728%, 63.948059%, 87.805176%)" offset="0.324219"/><stop stop-opacity="1" stop-color="rgb(36.172485%, 63.591003%, 87.750244%)" offset="0.328125"/><stop stop-opacity="1" stop-color="rgb(36.097717%, 63.232422%, 87.693787%)" offset="0.332031"/><stop stop-opacity="1" stop-color="rgb(36.022949%, 62.87384%, 87.638855%)" offset="0.335938"/><stop stop-opacity="1" stop-color="rgb(35.948181%, 62.515259%, 87.582397%)" offset="0.339844"/><stop stop-opacity="1" stop-color="rgb(35.874939%, 62.158203%, 87.527466%)" offset="0.34375"/><stop stop-opacity="1" stop-color="rgb(35.800171%, 61.799622%, 87.472534%)" offset="0.347656"/><stop stop-opacity="1" stop-color="rgb(35.725403%, 61.44104%, 87.417603%)" offset="0.351563"/><stop stop-opacity="1" stop-color="rgb(35.650635%, 61.082458%, 87.361145%)" offset="0.355469"/><stop stop-opacity="1" stop-color="rgb(35.575867%, 60.725403%, 87.306213%)" offset="0.359375"/><stop stop-opacity="1" stop-color="rgb(35.501099%, 60.366821%, 87.249756%)" offset="0.363281"/><stop stop-opacity="1" stop-color="rgb(35.427856%, 60.00824%, 87.194824%)" offset="0.367188"/><stop stop-opacity="1" stop-color="rgb(35.353088%, 59.649658%, 87.139893%)" offset="0.371094"/><stop stop-opacity="1" stop-color="rgb(35.27832%, 59.292603%, 87.084961%)" offset="0.375"/><stop stop-opacity="1" stop-color="rgb(35.203552%, 58.934021%, 87.028503%)" offset="0.378906"/><stop stop-opacity="1" stop-color="rgb(35.13031%, 58.575439%, 86.973572%)" offset="0.382812"/><stop stop-opacity="1" stop-color="rgb(35.055542%, 58.216858%, 86.917114%)" offset="0.386719"/><stop stop-opacity="1" stop-color="rgb(34.980774%, 57.859802%, 86.862183%)" offset="0.390625"/><stop stop-opacity="1" stop-color="rgb(34.906006%, 57.501221%, 86.807251%)" offset="0.394531"/><stop stop-opacity="1" stop-color="rgb(34.831238%, 57.142639%, 86.752319%)" offset="0.398438"/><stop stop-opacity="1" stop-color="rgb(34.75647%, 56.784058%, 86.695862%)" offset="0.402344"/><stop stop-opacity="1" stop-color="rgb(34.683228%, 56.427002%, 86.64093%)" offset="0.40625"/><stop stop-opacity="1" stop-color="rgb(34.608459%, 56.06842%, 86.584473%)" offset="0.410156"/><stop stop-opacity="1" stop-color="rgb(34.533691%, 55.709839%, 86.529541%)" offset="0.414063"/><stop stop-opacity="1" stop-color="rgb(34.458923%, 55.351257%, 86.474609%)" offset="0.417969"/><stop stop-opacity="1" stop-color="rgb(34.385681%, 54.994202%, 86.419678%)" offset="0.421875"/><stop stop-opacity="1" stop-color="rgb(34.310913%, 54.63562%, 86.36322%)" offset="0.425781"/><stop stop-opacity="1" stop-color="rgb(34.236145%, 54.277039%, 86.308289%)" offset="0.429688"/><stop stop-opacity="1" stop-color="rgb(34.161377%, 53.918457%, 86.251831%)" offset="0.433594"/><stop stop-opacity="1" stop-color="rgb(34.086609%, 53.561401%, 86.196899%)" offset="0.4375"/><stop stop-opacity="1" stop-color="rgb(34.011841%, 53.20282%, 86.141968%)" offset="0.441406"/><stop stop-opacity="1" stop-color="rgb(33.938599%, 52.844238%, 86.087036%)" offset="0.445313"/><stop stop-opacity="1" stop-color="rgb(33.863831%, 52.485657%, 86.030579%)" offset="0.449219"/><stop stop-opacity="1" stop-color="rgb(33.789062%, 52.128601%, 85.975647%)" offset="0.453125"/><stop stop-opacity="1" stop-color="rgb(33.714294%, 51.77002%, 85.919189%)" offset="0.457031"/><stop stop-opacity="1" stop-color="rgb(33.641052%, 51.411438%, 85.864258%)" offset="0.460938"/><stop stop-opacity="1" stop-color="rgb(33.566284%, 51.052856%, 85.809326%)" offset="0.464844"/><stop stop-opacity="1" stop-color="rgb(33.491516%, 50.695801%, 85.754395%)" offset="0.46875"/><stop stop-opacity="1" stop-color="rgb(33.416748%, 50.337219%, 85.697937%)" offset="0.472656"/><stop stop-opacity="1" stop-color="rgb(33.34198%, 49.978638%, 85.643005%)" offset="0.476562"/><stop stop-opacity="1" stop-color="rgb(33.267212%, 49.620056%, 85.586548%)" offset="0.480469"/><stop stop-opacity="1" stop-color="rgb(33.19397%, 49.263%, 85.531616%)" offset="0.484375"/><stop stop-opacity="1" stop-color="rgb(33.119202%, 48.904419%, 85.476685%)" offset="0.488281"/><stop stop-opacity="1" stop-color="rgb(33.044434%, 48.545837%, 85.421753%)" offset="0.492188"/><stop stop-opacity="1" stop-color="rgb(32.969666%, 48.187256%, 85.365295%)" offset="0.496094"/><stop stop-opacity="1" stop-color="rgb(32.896423%, 47.8302%, 85.310364%)" offset="0.5"/><stop stop-opacity="1" stop-color="rgb(32.821655%, 47.471619%, 85.253906%)" offset="0.503906"/><stop stop-opacity="1" stop-color="rgb(32.746887%, 47.113037%, 85.198975%)" offset="0.507812"/><stop stop-opacity="1" stop-color="rgb(32.672119%, 46.754456%, 85.144043%)" offset="0.511719"/><stop stop-opacity="1" stop-color="rgb(32.597351%, 46.3974%, 85.089111%)" offset="0.515625"/><stop stop-opacity="1" stop-color="rgb(32.522583%, 46.038818%, 85.032654%)" offset="0.519531"/><stop stop-opacity="1" stop-color="rgb(32.449341%, 45.680237%, 84.977722%)" offset="0.523438"/><stop stop-opacity="1" stop-color="rgb(32.374573%, 45.321655%, 84.921265%)" offset="0.527344"/><stop stop-opacity="1" stop-color="rgb(32.299805%, 44.9646%, 84.866333%)" offset="0.53125"/><stop stop-opacity="1" stop-color="rgb(32.225037%, 44.606018%, 84.811401%)" offset="0.535156"/><stop stop-opacity="1" stop-color="rgb(32.150269%, 44.247437%, 84.75647%)" offset="0.539063"/><stop stop-opacity="1" stop-color="rgb(32.0755%, 43.888855%, 84.700012%)" offset="0.542969"/><stop stop-opacity="1" stop-color="rgb(32.002258%, 43.531799%, 84.645081%)" offset="0.546875"/><stop stop-opacity="1" stop-color="rgb(31.92749%, 43.173218%, 84.588623%)" offset="0.550781"/><stop stop-opacity="1" stop-color="rgb(31.852722%, 42.814636%, 84.533691%)" offset="0.554688"/><stop stop-opacity="1" stop-color="rgb(31.777954%, 42.456055%, 84.47876%)" offset="0.558594"/><stop stop-opacity="1" stop-color="rgb(31.704712%, 42.098999%, 84.423828%)" offset="0.5625"/><stop stop-opacity="1" stop-color="rgb(31.629944%, 41.740417%, 84.367371%)" offset="0.566406"/><stop stop-opacity="1" stop-color="rgb(31.555176%, 41.381836%, 84.312439%)" offset="0.570313"/><stop stop-opacity="1" stop-color="rgb(31.480408%, 41.023254%, 84.255981%)" offset="0.574219"/><stop stop-opacity="1" stop-color="rgb(31.40564%, 40.666199%, 84.20105%)" offset="0.578125"/><stop stop-opacity="1" stop-color="rgb(31.330872%, 40.307617%, 84.146118%)" offset="0.582031"/><stop stop-opacity="1" stop-color="rgb(31.257629%, 39.949036%, 84.091187%)" offset="0.585938"/><stop stop-opacity="1" stop-color="rgb(31.182861%, 39.590454%, 84.034729%)" offset="0.589844"/><stop stop-opacity="1" stop-color="rgb(31.108093%, 39.233398%, 83.979797%)" offset="0.59375"/><stop stop-opacity="1" stop-color="rgb(31.033325%, 38.874817%, 83.92334%)" offset="0.597656"/><stop stop-opacity="1" stop-color="rgb(30.960083%, 38.516235%, 83.868408%)" offset="0.601562"/><stop stop-opacity="1" stop-color="rgb(30.885315%, 38.157654%, 83.813477%)" offset="0.605469"/><stop stop-opacity="1" stop-color="rgb(30.810547%, 37.800598%, 83.758545%)" offset="0.609375"/><stop stop-opacity="1" stop-color="rgb(30.735779%, 37.442017%, 83.702087%)" offset="0.613281"/><stop stop-opacity="1" stop-color="rgb(30.661011%, 37.083435%, 83.647156%)" offset="0.617188"/><stop stop-opacity="1" stop-color="rgb(30.586243%, 36.724854%, 83.590698%)" offset="0.621094"/><stop stop-opacity="1" stop-color="rgb(30.513%, 36.366272%, 83.535767%)" offset="0.625"/><stop stop-opacity="1" stop-color="rgb(30.438232%, 36.00769%, 83.480835%)" offset="0.628906"/><stop stop-opacity="1" stop-color="rgb(30.363464%, 35.650635%, 83.425903%)" offset="0.632812"/><stop stop-opacity="1" stop-color="rgb(30.288696%, 35.292053%, 83.369446%)" offset="0.636719"/><stop stop-opacity="1" stop-color="rgb(30.215454%, 34.933472%, 83.314514%)" offset="0.640625"/><stop stop-opacity="1" stop-color="rgb(30.140686%, 34.57489%, 83.258057%)" offset="0.644531"/><stop stop-opacity="1" stop-color="rgb(30.065918%, 34.217834%, 83.203125%)" offset="0.648438"/><stop stop-opacity="1" stop-color="rgb(29.99115%, 33.859253%, 83.148193%)" offset="0.652344"/><stop stop-opacity="1" stop-color="rgb(29.916382%, 33.500671%, 83.093262%)" offset="0.65625"/><stop stop-opacity="1" stop-color="rgb(29.841614%, 33.14209%, 83.036804%)" offset="0.660156"/><stop stop-opacity="1" stop-color="rgb(29.768372%, 32.785034%, 82.981873%)" offset="0.664062"/><stop stop-opacity="1" stop-color="rgb(29.693604%, 32.426453%, 82.925415%)" offset="0.667969"/><stop stop-opacity="1" stop-color="rgb(29.618835%, 32.067871%, 82.870483%)" offset="0.671875"/><stop stop-opacity="1" stop-color="rgb(29.544067%, 31.70929%, 82.815552%)" offset="0.675781"/><stop stop-opacity="1" stop-color="rgb(29.470825%, 31.352234%, 82.76062%)" offset="0.679688"/><stop stop-opacity="1" stop-color="rgb(29.396057%, 30.993652%, 82.704163%)" offset="0.683594"/><stop stop-opacity="1" stop-color="rgb(29.321289%, 30.635071%, 82.649231%)" offset="0.6875"/><stop stop-opacity="1" stop-color="rgb(29.246521%, 30.276489%, 82.592773%)" offset="0.691406"/><stop stop-opacity="1" stop-color="rgb(29.171753%, 29.919434%, 82.537842%)" offset="0.695313"/><stop stop-opacity="1" stop-color="rgb(29.096985%, 29.560852%, 82.48291%)" offset="0.699219"/><stop stop-opacity="1" stop-color="rgb(29.023743%, 29.202271%, 82.427979%)" offset="0.703125"/><stop stop-opacity="1" stop-color="rgb(28.948975%, 28.843689%, 82.371521%)" offset="0.707031"/><stop stop-opacity="1" stop-color="rgb(28.874207%, 28.486633%, 82.316589%)" offset="0.710938"/><stop stop-opacity="1" stop-color="rgb(28.799438%, 28.128052%, 82.260132%)" offset="0.714844"/><stop stop-opacity="1" stop-color="rgb(28.726196%, 27.76947%, 82.2052%)" offset="0.71875"/><stop stop-opacity="1" stop-color="rgb(28.651428%, 27.410889%, 82.150269%)" offset="0.722656"/><stop stop-opacity="1" stop-color="rgb(28.57666%, 27.053833%, 82.095337%)" offset="0.726562"/><stop stop-opacity="1" stop-color="rgb(28.501892%, 26.695251%, 82.038879%)" offset="0.730469"/><stop stop-opacity="1" stop-color="rgb(28.427124%, 26.33667%, 81.983948%)" offset="0.734375"/><stop stop-opacity="1" stop-color="rgb(28.352356%, 25.978088%, 81.92749%)" offset="0.738281"/><stop stop-opacity="1" stop-color="rgb(28.279114%, 25.621033%, 81.872559%)" offset="0.742188"/><stop stop-opacity="1" stop-color="rgb(28.204346%, 25.262451%, 81.817627%)" offset="0.746094"/><stop stop-opacity="1" stop-color="rgb(28.129578%, 24.90387%, 81.762695%)" offset="0.75"/><stop stop-opacity="1" stop-color="rgb(28.05481%, 24.545288%, 81.706238%)" offset="0.753906"/><stop stop-opacity="1" stop-color="rgb(27.981567%, 24.188232%, 81.651306%)" offset="0.757812"/><stop stop-opacity="1" stop-color="rgb(27.906799%, 23.829651%, 81.594849%)" offset="0.761719"/><stop stop-opacity="1" stop-color="rgb(27.832031%, 23.471069%, 81.539917%)" offset="0.765625"/><stop stop-opacity="1" stop-color="rgb(27.757263%, 23.112488%, 81.484985%)" offset="0.769531"/><stop stop-opacity="1" stop-color="rgb(27.682495%, 22.755432%, 81.430054%)" offset="0.773438"/><stop stop-opacity="1" stop-color="rgb(27.607727%, 22.396851%, 81.373596%)" offset="0.777344"/><stop stop-opacity="1" stop-color="rgb(27.534485%, 22.038269%, 81.318665%)" offset="0.78125"/><stop stop-opacity="1" stop-color="rgb(27.459717%, 21.679688%, 81.262207%)" offset="0.785156"/><stop stop-opacity="1" stop-color="rgb(27.384949%, 21.322632%, 81.207275%)" offset="0.789062"/><stop stop-opacity="1" stop-color="rgb(27.310181%, 20.96405%, 81.152344%)" offset="0.792969"/><stop stop-opacity="1" stop-color="rgb(27.235413%, 20.605469%, 81.097412%)" offset="0.796875"/><stop stop-opacity="1" stop-color="rgb(27.160645%, 20.246887%, 81.040955%)" offset="0.800781"/><stop stop-opacity="1" stop-color="rgb(27.087402%, 19.889832%, 80.986023%)" offset="0.804688"/><stop stop-opacity="1" stop-color="rgb(27.012634%, 19.53125%, 80.929565%)" offset="0.808594"/><stop stop-opacity="1" stop-color="rgb(26.937866%, 19.172668%, 80.874634%)" offset="0.8125"/><stop stop-opacity="1" stop-color="rgb(26.863098%, 18.814087%, 80.819702%)" offset="0.816406"/><stop stop-opacity="1" stop-color="rgb(26.789856%, 18.457031%, 80.764771%)" offset="0.820312"/><stop stop-opacity="1" stop-color="rgb(26.715088%, 18.09845%, 80.708313%)" offset="0.824219"/><stop stop-opacity="1" stop-color="rgb(26.64032%, 17.739868%, 80.653381%)" offset="0.828125"/><stop stop-opacity="1" stop-color="rgb(26.565552%, 17.381287%, 80.596924%)" offset="0.832031"/><stop stop-opacity="1" stop-color="rgb(26.490784%, 17.024231%, 80.541992%)" offset="0.835938"/><stop stop-opacity="1" stop-color="rgb(26.416016%, 16.665649%, 80.487061%)" offset="0.839844"/><stop stop-opacity="1" stop-color="rgb(26.342773%, 16.307068%, 80.432129%)" offset="0.84375"/><stop stop-opacity="1" stop-color="rgb(26.319885%, 16.203308%, 80.415344%)" offset="0.875"/><stop stop-opacity="1" stop-color="rgb(26.298523%, 16.099548%, 80.39856%)" offset="1"/></linearGradient><clipPath id="c2f3e3eea3"><path d="M 69 148 L 107 148 L 107 185 L 69 185 Z M 69 148 " clip-rule="nonzero"/></clipPath><clipPath id="472583728d"><path d="M 78.378906 151.851562 L 77.277344 152.632812 C 69.347656 158.289062 67.503906 169.292969 73.167969 177.214844 C 78.828125 185.140625 89.847656 186.976562 97.78125 181.324219 L 98.878906 180.539062 C 106.8125 174.886719 108.652344 163.878906 102.992188 155.957031 C 97.332031 148.035156 86.3125 146.195312 78.378906 151.851562 Z M 78.378906 151.851562 " clip-rule="nonzero"/></clipPath><linearGradient x1="304.377835" gradientTransform="matrix(0.347827, 0, 0, 0.347392, 3.436855, 2.362261)" y1="416.063524" x2="182.3151" gradientUnits="userSpaceOnUse" y2="529.407408" id="a521863b5c"><stop stop-opacity="1" stop-color="rgb(30.665588%, 37.101746%, 83.650208%)" offset="0"/><stop stop-opacity="1" stop-color="rgb(30.627441%, 36.91864%, 83.621216%)" offset="0.015625"/><stop stop-opacity="1" stop-color="rgb(30.551147%, 36.553955%, 83.564758%)" offset="0.03125"/><stop stop-opacity="1" stop-color="rgb(30.474854%, 36.187744%, 83.508301%)" offset="0.046875"/><stop stop-opacity="1" stop-color="rgb(30.400085%, 35.823059%, 83.451843%)" offset="0.0625"/><stop stop-opacity="1" stop-color="rgb(30.323792%, 35.458374%, 83.395386%)" offset="0.078125"/><stop stop-opacity="1" stop-color="rgb(30.247498%, 35.093689%, 83.338928%)" offset="0.09375"/><stop stop-opacity="1" stop-color="rgb(30.172729%, 34.729004%, 83.282471%)" offset="0.109375"/><stop stop-opacity="1" stop-color="rgb(30.096436%, 34.364319%, 83.226013%)" offset="0.125"/><stop stop-opacity="1" stop-color="rgb(30.020142%, 33.998108%, 83.169556%)" offset="0.140625"/><stop stop-opacity="1" stop-color="rgb(29.943848%, 33.633423%, 83.113098%)" offset="0.15625"/><stop stop-opacity="1" stop-color="rgb(29.86908%, 33.268738%, 83.056641%)" offset="0.171875"/><stop stop-opacity="1" stop-color="rgb(29.792786%, 32.904053%, 83.000183%)" offset="0.1875"/><stop stop-opacity="1" stop-color="rgb(29.716492%, 32.539368%, 82.943726%)" offset="0.203125"/><stop stop-opacity="1" stop-color="rgb(29.640198%, 32.173157%, 82.887268%)" offset="0.21875"/><stop stop-opacity="1" stop-color="rgb(29.56543%, 31.808472%, 82.830811%)" offset="0.234375"/><stop stop-opacity="1" stop-color="rgb(29.489136%, 31.443787%, 82.774353%)" offset="0.25"/><stop stop-opacity="1" stop-color="rgb(29.412842%, 31.079102%, 82.71637%)" offset="0.265625"/><stop stop-opacity="1" stop-color="rgb(29.338074%, 30.714417%, 82.659912%)" offset="0.28125"/><stop stop-opacity="1" stop-color="rgb(29.26178%, 30.348206%, 82.603455%)" offset="0.296875"/><stop stop-opacity="1" stop-color="rgb(29.185486%, 29.983521%, 82.546997%)" offset="0.3125"/><stop stop-opacity="1" stop-color="rgb(29.109192%, 29.618835%, 82.49054%)" offset="0.328125"/><stop stop-opacity="1" stop-color="rgb(29.034424%, 29.25415%, 82.434082%)" offset="0.34375"/><stop stop-opacity="1" stop-color="rgb(28.95813%, 28.889465%, 82.377625%)" offset="0.359375"/><stop stop-opacity="1" stop-color="rgb(28.881836%, 28.523254%, 82.321167%)" offset="0.375"/><stop stop-opacity="1" stop-color="rgb(28.805542%, 28.158569%, 82.264709%)" offset="0.390625"/><stop stop-opacity="1" stop-color="rgb(28.730774%, 27.793884%, 82.208252%)" offset="0.40625"/><stop stop-opacity="1" stop-color="rgb(28.65448%, 27.429199%, 82.151794%)" offset="0.421875"/><stop stop-opacity="1" stop-color="rgb(28.578186%, 27.064514%, 82.095337%)" offset="0.4375"/><stop stop-opacity="1" stop-color="rgb(28.503418%, 26.698303%, 82.038879%)" offset="0.453125"/><stop stop-opacity="1" stop-color="rgb(28.427124%, 26.333618%, 81.982422%)" offset="0.46875"/><stop stop-opacity="1" stop-color="rgb(28.35083%, 25.968933%, 81.925964%)" offset="0.479562"/><stop stop-opacity="1" stop-color="rgb(28.312683%, 25.787354%, 81.898499%)" offset="0.484375"/><stop stop-opacity="1" stop-color="rgb(28.274536%, 25.604248%, 81.869507%)" offset="0.5"/><stop stop-opacity="1" stop-color="rgb(28.199768%, 25.239563%, 81.813049%)" offset="0.515625"/><stop stop-opacity="1" stop-color="rgb(28.123474%, 24.874878%, 81.756592%)" offset="0.520438"/><stop stop-opacity="1" stop-color="rgb(28.085327%, 24.691772%, 81.729126%)" offset="0.53125"/><stop stop-opacity="1" stop-color="rgb(28.04718%, 24.508667%, 81.700134%)" offset="0.546875"/><stop stop-opacity="1" stop-color="rgb(27.970886%, 24.143982%, 81.643677%)" offset="0.5625"/><stop stop-opacity="1" stop-color="rgb(27.896118%, 23.779297%, 81.587219%)" offset="0.578125"/><stop stop-opacity="1" stop-color="rgb(27.819824%, 23.414612%, 81.530762%)" offset="0.59375"/><stop stop-opacity="1" stop-color="rgb(27.74353%, 23.049927%, 81.474304%)" offset="0.609375"/><stop stop-opacity="1" stop-color="rgb(27.668762%, 22.683716%, 81.417847%)" offset="0.625"/><stop stop-opacity="1" stop-color="rgb(27.592468%, 22.319031%, 81.361389%)" offset="0.640625"/><stop stop-opacity="1" stop-color="rgb(27.516174%, 21.954346%, 81.304932%)" offset="0.65625"/><stop stop-opacity="1" stop-color="rgb(27.43988%, 21.589661%, 81.248474%)" offset="0.671875"/><stop stop-opacity="1" stop-color="rgb(27.365112%, 21.224976%, 81.192017%)" offset="0.6875"/><stop stop-opacity="1" stop-color="rgb(27.288818%, 20.858765%, 81.135559%)" offset="0.703125"/><stop stop-opacity="1" stop-color="rgb(27.212524%, 20.49408%, 81.079102%)" offset="0.71875"/><stop stop-opacity="1" stop-color="rgb(27.137756%, 20.129395%, 81.022644%)" offset="0.734375"/><stop stop-opacity="1" stop-color="rgb(27.061462%, 19.764709%, 80.966187%)" offset="0.75"/><stop stop-opacity="1" stop-color="rgb(26.985168%, 19.400024%, 80.909729%)" offset="0.765625"/><stop stop-opacity="1" stop-color="rgb(26.908875%, 19.033813%, 80.853271%)" offset="0.78125"/><stop stop-opacity="1" stop-color="rgb(26.834106%, 18.669128%, 80.796814%)" offset="0.796875"/><stop stop-opacity="1" stop-color="rgb(26.757812%, 18.304443%, 80.740356%)" offset="0.8125"/><stop stop-opacity="1" stop-color="rgb(26.681519%, 17.939758%, 80.683899%)" offset="0.828125"/><stop stop-opacity="1" stop-color="rgb(26.605225%, 17.575073%, 80.627441%)" offset="0.84375"/><stop stop-opacity="1" stop-color="rgb(26.530457%, 17.210388%, 80.570984%)" offset="0.859375"/><stop stop-opacity="1" stop-color="rgb(26.454163%, 16.844177%, 80.514526%)" offset="0.875"/><stop stop-opacity="1" stop-color="rgb(26.377869%, 16.479492%, 80.458069%)" offset="0.890625"/><stop stop-opacity="1" stop-color="rgb(26.319885%, 16.19873%, 80.413818%)" offset="0.90625"/><stop stop-opacity="1" stop-color="rgb(26.298523%, 16.099548%, 80.39856%)" offset="0.9375"/><stop stop-opacity="1" stop-color="rgb(26.298523%, 16.099548%, 80.39856%)" offset="1"/></linearGradient><clipPath id="1aab46c8a0"><path d="M 91 2 L 127 2 L 127 38 L 91 38 Z M 91 2 " clip-rule="nonzero"/></clipPath><clipPath id="1c09e30723"><path d="M 119.414062 34.332031 C 127.34375 28.679688 129.1875 17.671875 123.523438 9.75 C 117.863281 1.828125 106.84375 -0.0117188 98.910156 5.640625 C 90.980469 11.296875 89.136719 22.300781 94.800781 30.226562 C 100.460938 38.148438 111.480469 39.984375 119.414062 34.332031 Z M 119.414062 34.332031 " clip-rule="nonzero"/></clipPath><linearGradient x1="363.561062" gradientTransform="matrix(0.347827, 0, 0, 0.347392, 3.436855, 2.362261)" y1="-4.610552" x2="244.33916" gradientUnits="userSpaceOnUse" y2="106.095404" id="a377106d16"><stop stop-opacity="1" stop-color="rgb(39.99939%, 81.999207%, 90.59906%)" offset="0"/><stop stop-opacity="1" stop-color="rgb(39.988708%, 81.948853%, 90.591431%)" offset="0.0625"/><stop stop-opacity="1" stop-color="rgb(39.941406%, 81.719971%, 90.556335%)" offset="0.078125"/><stop stop-opacity="1" stop-color="rgb(39.866638%, 81.362915%, 90.501404%)" offset="0.09375"/><stop stop-opacity="1" stop-color="rgb(39.79187%, 81.007385%, 90.444946%)" offset="0.109375"/><stop stop-opacity="1" stop-color="rgb(39.718628%, 80.65033%, 90.390015%)" offset="0.125"/><stop stop-opacity="1" stop-color="rgb(39.64386%, 80.293274%, 90.335083%)" offset="0.140625"/><stop stop-opacity="1" stop-color="rgb(39.570618%, 79.937744%, 90.280151%)" offset="0.15625"/><stop stop-opacity="1" stop-color="rgb(39.49585%, 79.580688%, 90.22522%)" offset="0.171875"/><stop stop-opacity="1" stop-color="rgb(39.422607%, 79.223633%, 90.170288%)" offset="0.1875"/><stop stop-opacity="1" stop-color="rgb(39.347839%, 78.868103%, 90.113831%)" offset="0.203125"/><stop stop-opacity="1" stop-color="rgb(39.273071%, 78.511047%, 90.058899%)" offset="0.21875"/><stop stop-opacity="1" stop-color="rgb(39.199829%, 78.155518%, 90.003967%)" offset="0.234375"/><stop stop-opacity="1" stop-color="rgb(39.125061%, 77.798462%, 89.949036%)" offset="0.25"/><stop stop-opacity="1" stop-color="rgb(39.051819%, 77.441406%, 89.894104%)" offset="0.265625"/><stop stop-opacity="1" stop-color="rgb(38.977051%, 77.085876%, 89.839172%)" offset="0.28125"/><stop stop-opacity="1" stop-color="rgb(38.903809%, 76.728821%, 89.782715%)" offset="0.296875"/><stop stop-opacity="1" stop-color="rgb(38.829041%, 76.371765%, 89.727783%)" offset="0.3125"/><stop stop-opacity="1" stop-color="rgb(38.754272%, 76.016235%, 89.672852%)" offset="0.328125"/><stop stop-opacity="1" stop-color="rgb(38.68103%, 75.65918%, 89.61792%)" offset="0.34375"/><stop stop-opacity="1" stop-color="rgb(38.606262%, 75.30365%, 89.562988%)" offset="0.359375"/><stop stop-opacity="1" stop-color="rgb(38.53302%, 74.946594%, 89.508057%)" offset="0.375"/><stop stop-opacity="1" stop-color="rgb(38.458252%, 74.589539%, 89.451599%)" offset="0.390625"/><stop stop-opacity="1" stop-color="rgb(38.38501%, 74.234009%, 89.396667%)" offset="0.40625"/><stop stop-opacity="1" stop-color="rgb(38.310242%, 73.876953%, 89.341736%)" offset="0.421875"/><stop stop-opacity="1" stop-color="rgb(38.235474%, 73.519897%, 89.286804%)" offset="0.4375"/><stop stop-opacity="1" stop-color="rgb(38.162231%, 73.164368%, 89.231873%)" offset="0.453125"/><stop stop-opacity="1" stop-color="rgb(38.087463%, 72.807312%, 89.176941%)" offset="0.46875"/><stop stop-opacity="1" stop-color="rgb(38.014221%, 72.451782%, 89.122009%)" offset="0.481407"/><stop stop-opacity="1" stop-color="rgb(37.9776%, 72.273254%, 89.094543%)" offset="0.484375"/><stop stop-opacity="1" stop-color="rgb(37.939453%, 72.094727%, 89.065552%)" offset="0.5"/><stop stop-opacity="1" stop-color="rgb(37.866211%, 71.737671%, 89.01062%)" offset="0.515625"/><stop stop-opacity="1" stop-color="rgb(37.791443%, 71.382141%, 88.955688%)" offset="0.518593"/><stop stop-opacity="1" stop-color="rgb(37.754822%, 71.203613%, 88.928223%)" offset="0.53125"/><stop stop-opacity="1" stop-color="rgb(37.718201%, 71.025085%, 88.900757%)" offset="0.546875"/><stop stop-opacity="1" stop-color="rgb(37.643433%, 70.66803%, 88.845825%)" offset="0.5625"/><stop stop-opacity="1" stop-color="rgb(37.568665%, 70.3125%, 88.790894%)" offset="0.578125"/><stop stop-opacity="1" stop-color="rgb(37.495422%, 69.955444%, 88.734436%)" offset="0.59375"/><stop stop-opacity="1" stop-color="rgb(37.420654%, 69.599915%, 88.679504%)" offset="0.609375"/><stop stop-opacity="1" stop-color="rgb(37.347412%, 69.242859%, 88.624573%)" offset="0.625"/><stop stop-opacity="1" stop-color="rgb(37.272644%, 68.885803%, 88.569641%)" offset="0.640625"/><stop stop-opacity="1" stop-color="rgb(37.199402%, 68.530273%, 88.514709%)" offset="0.65625"/><stop stop-opacity="1" stop-color="rgb(37.124634%, 68.173218%, 88.459778%)" offset="0.671875"/><stop stop-opacity="1" stop-color="rgb(37.049866%, 67.816162%, 88.40332%)" offset="0.6875"/><stop stop-opacity="1" stop-color="rgb(36.976624%, 67.460632%, 88.348389%)" offset="0.703125"/><stop stop-opacity="1" stop-color="rgb(36.901855%, 67.103577%, 88.293457%)" offset="0.71875"/><stop stop-opacity="1" stop-color="rgb(36.828613%, 66.748047%, 88.238525%)" offset="0.734375"/><stop stop-opacity="1" stop-color="rgb(36.753845%, 66.390991%, 88.183594%)" offset="0.75"/><stop stop-opacity="1" stop-color="rgb(36.680603%, 66.033936%, 88.128662%)" offset="0.765625"/><stop stop-opacity="1" stop-color="rgb(36.605835%, 65.678406%, 88.072205%)" offset="0.78125"/><stop stop-opacity="1" stop-color="rgb(36.531067%, 65.32135%, 88.017273%)" offset="0.796875"/><stop stop-opacity="1" stop-color="rgb(36.457825%, 64.964294%, 87.962341%)" offset="0.8125"/><stop stop-opacity="1" stop-color="rgb(36.383057%, 64.608765%, 87.90741%)" offset="0.828125"/><stop stop-opacity="1" stop-color="rgb(36.309814%, 64.251709%, 87.852478%)" offset="0.84375"/><stop stop-opacity="1" stop-color="rgb(36.235046%, 63.896179%, 87.797546%)" offset="0.859375"/><stop stop-opacity="1" stop-color="rgb(36.161804%, 63.539124%, 87.742615%)" offset="0.875"/><stop stop-opacity="1" stop-color="rgb(36.087036%, 63.182068%, 87.686157%)" offset="0.890625"/><stop stop-opacity="1" stop-color="rgb(36.012268%, 62.826538%, 87.631226%)" offset="0.90625"/><stop stop-opacity="1" stop-color="rgb(35.939026%, 62.469482%, 87.576294%)" offset="0.921875"/><stop stop-opacity="1" stop-color="rgb(35.864258%, 62.112427%, 87.521362%)" offset="0.9375"/><stop stop-opacity="1" stop-color="rgb(35.791016%, 61.756897%, 87.466431%)" offset="0.953125"/><stop stop-opacity="1" stop-color="rgb(35.716248%, 61.399841%, 87.411499%)" offset="0.96875"/><stop stop-opacity="1" stop-color="rgb(35.643005%, 61.044312%, 87.355042%)" offset="0.984375"/><stop stop-opacity="1" stop-color="rgb(35.568237%, 60.687256%, 87.30011%)" offset="1"/></linearGradient></defs><g clip-path="url(#519466a29b)"><path fill="#ffffff" d="M 0.996094 0 L 749.003906 0 L 749.003906 187 L 0.996094 187 Z M 0.996094 0 " fill-opacity="1" fill-rule="nonzero"/><path fill="#f4f5f7" d="M 0.996094 0 L 749.003906 0 L 749.003906 187 L 0.996094 187 Z M 0.996094 0 " fill-opacity="1" fill-rule="nonzero"/></g><g clip-path="url(#81a572026e)"><g clip-path="url(#25db713280)"><path fill="url(#0f8661b2c2)" d="M 1.058594 25.460938 L 1.058594 158.339844 L 187.910156 158.339844 L 187.910156 25.460938 Z M 1.058594 25.460938 " fill-rule="nonzero"/></g></g><g clip-path="url(#c2f3e3eea3)"><g clip-path="url(#472583728d)"><path fill="url(#a521863b5c)" d="M 67.503906 146.195312 L 67.503906 186.976562 L 108.652344 186.976562 L 108.652344 146.195312 Z M 67.503906 146.195312 " fill-rule="nonzero"/></g></g><g clip-path="url(#1aab46c8a0)"><g clip-path="url(#1c09e30723)"><path fill="url(#a377106d16)" d="M 89.136719 0 L 89.136719 39.984375 L 129.1875 39.984375 L 129.1875 0 Z M 89.136719 0 " fill-rule="nonzero"/></g></g><g fill="#2c2d2f" fill-opacity="1"><g transform="translate(231.266791, 90.15666)"><g><path d="M 42.53125 -57.515625 L 42.53125 -46.296875 L 19.09375 -46.296875 L 19.09375 -34.171875 L 36.625 -34.171875 L 36.625 -23.265625 L 19.09375 -23.265625 L 19.09375 0 L 5.078125 0 L 5.078125 -57.515625 Z M 42.53125 -57.515625 "/></g></g></g><g fill="#2c2d2f" fill-opacity="1"><g transform="translate(273.216552, 90.15666)"><g><path d="M 19.09375 -57.515625 L 19.09375 0 L 5.078125 0 L 5.078125 -57.515625 Z M 19.09375 -57.515625 "/></g></g></g><g fill="#2c2d2f" fill-opacity="1"><g transform="translate(294.519079, 90.15666)"><g><path d="M 56.53125 0 L 42.53125 0 L 19.09375 -35.484375 L 19.09375 0 L 5.078125 0 L 5.078125 -57.515625 L 19.09375 -57.515625 L 42.53125 -21.875 L 42.53125 -57.515625 L 56.53125 -57.515625 Z M 56.53125 0 "/></g></g></g><g fill="#2c2d2f" fill-opacity="1"><g transform="translate(353.265193, 90.15666)"><g><path d="M 46.453125 -57.515625 L 46.453125 -46.296875 L 31.21875 -46.296875 L 31.21875 0 L 17.203125 0 L 17.203125 -46.296875 L 1.96875 -46.296875 L 1.96875 -57.515625 Z M 46.453125 -57.515625 "/></g></g></g><g fill="#2c2d2f" fill-opacity="1"><g transform="translate(398.820023, 90.15666)"><g><path d="M 19.09375 -46.296875 L 19.09375 -34.65625 L 37.859375 -34.65625 L 37.859375 -23.84375 L 19.09375 -23.84375 L 19.09375 -11.21875 L 40.3125 -11.21875 L 40.3125 0 L 5.078125 0 L 5.078125 -57.515625 L 40.3125 -57.515625 L 40.3125 -46.296875 Z M 19.09375 -46.296875 "/></g></g></g><g fill="#2c2d2f" fill-opacity="1"><g transform="translate(440.278175, 90.15666)"><g><path d="M 19.09375 -10.8125 L 37.453125 -10.8125 L 37.453125 0 L 5.078125 0 L 5.078125 -57.515625 L 19.09375 -57.515625 Z M 19.09375 -10.8125 "/></g></g></g><g fill="#2c2d2f" fill-opacity="1"><g transform="translate(476.49258, 90.15666)"><g><path d="M 19.09375 -10.8125 L 37.453125 -10.8125 L 37.453125 0 L 5.078125 0 L 5.078125 -57.515625 L 19.09375 -57.515625 Z M 19.09375 -10.8125 "/></g></g></g><g fill="#2c2d2f" fill-opacity="1"><g transform="translate(512.706985, 90.15666)"><g><path d="M 19.09375 -57.515625 L 19.09375 0 L 5.078125 0 L 5.078125 -57.515625 Z M 19.09375 -57.515625 "/></g></g></g><g fill="#2c2d2f" fill-opacity="1"><g transform="translate(534.014539, 90.15666)"><g><path d="M 49.578125 -40.5625 C 47.992188 -43.894531 45.695312 -46.472656 42.6875 -48.296875 C 39.6875 -50.128906 36.191406 -51.046875 32.203125 -51.046875 C 28.210938 -51.046875 24.617188 -50.128906 21.421875 -48.296875 C 18.234375 -46.472656 15.722656 -43.851562 13.890625 -40.4375 C 12.054688 -37.019531 11.140625 -33.070312 11.140625 -28.59375 C 11.140625 -24.113281 12.054688 -20.179688 13.890625 -16.796875 C 15.722656 -13.410156 18.234375 -10.800781 21.421875 -8.96875 C 24.617188 -7.144531 28.210938 -6.234375 32.203125 -6.234375 C 37.773438 -6.234375 42.363281 -7.894531 45.96875 -11.21875 C 49.570312 -14.550781 51.675781 -19.0625 52.28125 -24.75 L 29.5 -24.75 L 29.5 -30.8125 L 60.21875 -30.8125 L 60.21875 -25.078125 C 59.78125 -20.378906 58.304688 -16.078125 55.796875 -12.171875 C 53.285156 -8.265625 49.976562 -5.175781 45.875 -2.90625 C 41.78125 -0.644531 37.222656 0.484375 32.203125 0.484375 C 26.898438 0.484375 22.0625 -0.753906 17.6875 -3.234375 C 13.320312 -5.722656 9.867188 -9.175781 7.328125 -13.59375 C 4.785156 -18.019531 3.515625 -23.019531 3.515625 -28.59375 C 3.515625 -34.164062 4.785156 -39.175781 7.328125 -43.625 C 9.867188 -48.082031 13.320312 -51.550781 17.6875 -54.03125 C 22.0625 -56.519531 26.898438 -57.765625 32.203125 -57.765625 C 38.265625 -57.765625 43.628906 -56.257812 48.296875 -53.25 C 52.972656 -50.25 56.375 -46.019531 58.5 -40.5625 Z M 49.578125 -40.5625 "/></g></g></g><g fill="#2c2d2f" fill-opacity="1"><g transform="translate(594.890927, 90.15666)"><g><path d="M 13.765625 -51.046875 L 13.765625 -31.953125 L 34.578125 -31.953125 L 34.578125 -25.8125 L 13.765625 -25.8125 L 13.765625 -6.140625 L 37.03125 -6.140625 L 37.03125 0 L 6.3125 0 L 6.3125 -57.1875 L 37.03125 -57.1875 L 37.03125 -51.046875 Z M 13.765625 -51.046875 "/></g></g></g><g fill="#2c2d2f" fill-opacity="1"><g transform="translate(634.054954, 90.15666)"><g><path d="M 51.21875 0 L 43.75 0 L 13.765625 -45.46875 L 13.765625 0 L 6.3125 0 L 6.3125 -57.1875 L 13.765625 -57.1875 L 43.75 -11.796875 L 43.75 -57.1875 L 51.21875 -57.1875 Z M 51.21875 0 "/></g></g></g><g fill="#5894dd" fill-opacity="1"><g transform="translate(263.887167, 142.893519)"><g><path d="M 13.46875 -3.984375 L 4.859375 -3.984375 L 3.171875 0 L -0.125 0 L 7.625 -17.203125 L 10.765625 -17.203125 L 18.53125 0 L 15.1875 0 Z M 12.40625 -6.484375 L 9.171875 -14.015625 L 5.953125 -6.484375 Z M 12.40625 -6.484375 "/></g></g></g><g fill="#5894dd" fill-opacity="1"><g transform="translate(286.231666, 142.893519)"><g><path d="M 2.3125 -17.203125 L 5.5 -17.203125 L 5.5 0 L 2.3125 0 Z M 2.3125 -17.203125 "/></g></g></g><g fill="#5894dd" fill-opacity="1"><g transform="translate(298.006159, 142.893519)"><g/></g></g><g fill="#5894dd" fill-opacity="1"><g transform="translate(308.72365, 142.893519)"><g><path d="M 13.5625 0 L 10.046875 -5.03125 C 9.898438 -5.019531 9.679688 -5.015625 9.390625 -5.015625 L 5.5 -5.015625 L 5.5 0 L 2.3125 0 L 2.3125 -17.203125 L 9.390625 -17.203125 C 10.878906 -17.203125 12.175781 -16.957031 13.28125 -16.46875 C 14.382812 -15.976562 15.234375 -15.273438 15.828125 -14.359375 C 16.421875 -13.441406 16.71875 -12.347656 16.71875 -11.078125 C 16.71875 -9.785156 16.398438 -8.671875 15.765625 -7.734375 C 15.140625 -6.804688 14.234375 -6.113281 13.046875 -5.65625 L 17.015625 0 Z M 13.5 -11.078125 C 13.5 -12.179688 13.132812 -13.023438 12.40625 -13.609375 C 11.6875 -14.203125 10.628906 -14.5 9.234375 -14.5 L 5.5 -14.5 L 5.5 -7.640625 L 9.234375 -7.640625 C 10.628906 -7.640625 11.6875 -7.9375 12.40625 -8.53125 C 13.132812 -9.132812 13.5 -9.984375 13.5 -11.078125 Z M 13.5 -11.078125 "/></g></g></g><g fill="#5894dd" fill-opacity="1"><g transform="translate(330.625679, 142.893519)"><g><path d="M 15.21875 -2.671875 L 15.21875 0 L 2.3125 0 L 2.3125 -17.203125 L 14.875 -17.203125 L 14.875 -14.53125 L 5.5 -14.53125 L 5.5 -10.046875 L 13.8125 -10.046875 L 13.8125 -7.421875 L 5.5 -7.421875 L 5.5 -2.671875 Z M 15.21875 -2.671875 "/></g></g></g><g fill="#5894dd" fill-opacity="1"><g transform="translate(351.028239, 142.893519)"><g><path d="M 7.640625 0.25 C 6.316406 0.25 5.035156 0.0625 3.796875 -0.3125 C 2.554688 -0.695312 1.578125 -1.195312 0.859375 -1.8125 L 1.96875 -4.296875 C 2.664062 -3.742188 3.523438 -3.289062 4.546875 -2.9375 C 5.578125 -2.582031 6.609375 -2.40625 7.640625 -2.40625 C 8.921875 -2.40625 9.875 -2.609375 10.5 -3.015625 C 11.132812 -3.429688 11.453125 -3.972656 11.453125 -4.640625 C 11.453125 -5.128906 11.273438 -5.535156 10.921875 -5.859375 C 10.566406 -6.179688 10.117188 -6.429688 9.578125 -6.609375 C 9.046875 -6.785156 8.3125 -6.988281 7.375 -7.21875 C 6.0625 -7.53125 5 -7.84375 4.1875 -8.15625 C 3.375 -8.46875 2.675781 -8.957031 2.09375 -9.625 C 1.519531 -10.289062 1.234375 -11.1875 1.234375 -12.3125 C 1.234375 -13.257812 1.488281 -14.125 2 -14.90625 C 2.519531 -15.6875 3.300781 -16.304688 4.34375 -16.765625 C 5.382812 -17.222656 6.65625 -17.453125 8.15625 -17.453125 C 9.207031 -17.453125 10.238281 -17.316406 11.25 -17.046875 C 12.269531 -16.785156 13.148438 -16.410156 13.890625 -15.921875 L 12.875 -13.4375 C 12.125 -13.882812 11.335938 -14.222656 10.515625 -14.453125 C 9.703125 -14.679688 8.910156 -14.796875 8.140625 -14.796875 C 6.878906 -14.796875 5.941406 -14.582031 5.328125 -14.15625 C 4.710938 -13.726562 4.40625 -13.164062 4.40625 -12.46875 C 4.40625 -11.96875 4.578125 -11.5625 4.921875 -11.25 C 5.273438 -10.945312 5.722656 -10.703125 6.265625 -10.515625 C 6.804688 -10.335938 7.546875 -10.132812 8.484375 -9.90625 C 9.753906 -9.613281 10.800781 -9.304688 11.625 -8.984375 C 12.445312 -8.660156 13.144531 -8.171875 13.71875 -7.515625 C 14.300781 -6.859375 14.59375 -5.972656 14.59375 -4.859375 C 14.59375 -3.910156 14.332031 -3.050781 13.8125 -2.28125 C 13.300781 -1.507812 12.519531 -0.894531 11.46875 -0.4375 C 10.425781 0.0195312 9.148438 0.25 7.640625 0.25 Z M 7.640625 0.25 "/></g></g></g><g fill="#5894dd" fill-opacity="1"><g transform="translate(370.422966, 142.893519)"><g><path d="M 9.703125 0.25 C 7.328125 0.25 5.472656 -0.414062 4.140625 -1.75 C 2.816406 -3.09375 2.15625 -5.007812 2.15625 -7.5 L 2.15625 -17.203125 L 5.359375 -17.203125 L 5.359375 -7.625 C 5.359375 -4.25 6.816406 -2.5625 9.734375 -2.5625 C 12.628906 -2.5625 14.078125 -4.25 14.078125 -7.625 L 14.078125 -17.203125 L 17.234375 -17.203125 L 17.234375 -7.5 C 17.234375 -5.007812 16.570312 -3.09375 15.25 -1.75 C 13.925781 -0.414062 12.078125 0.25 9.703125 0.25 Z M 9.703125 0.25 "/></g></g></g><g fill="#5894dd" fill-opacity="1"><g transform="translate(393.750714, 142.893519)"><g><path d="M 18.109375 0 L 18.09375 -11.40625 L 12.4375 -1.96875 L 11.015625 -1.96875 L 5.359375 -11.25 L 5.359375 0 L 2.3125 0 L 2.3125 -17.203125 L 4.9375 -17.203125 L 11.765625 -5.796875 L 18.484375 -17.203125 L 21.109375 -17.203125 L 21.140625 0 Z M 18.109375 0 "/></g></g></g><g fill="#5894dd" fill-opacity="1"><g transform="translate(421.158985, 142.893519)"><g><path d="M 15.21875 -2.671875 L 15.21875 0 L 2.3125 0 L 2.3125 -17.203125 L 14.875 -17.203125 L 14.875 -14.53125 L 5.5 -14.53125 L 5.5 -10.046875 L 13.8125 -10.046875 L 13.8125 -7.421875 L 5.5 -7.421875 L 5.5 -2.671875 Z M 15.21875 -2.671875 "/></g></g></g><g fill="#5894dd" fill-opacity="1"><g transform="translate(441.561545, 142.893519)"><g/></g></g><g fill="#5894dd" fill-opacity="1"><g transform="translate(452.279032, 142.893519)"><g><path d="M 15.21875 -2.671875 L 15.21875 0 L 2.3125 0 L 2.3125 -17.203125 L 14.875 -17.203125 L 14.875 -14.53125 L 5.5 -14.53125 L 5.5 -10.046875 L 13.8125 -10.046875 L 13.8125 -7.421875 L 5.5 -7.421875 L 5.5 -2.671875 Z M 15.21875 -2.671875 "/></g></g></g><g fill="#5894dd" fill-opacity="1"><g transform="translate(472.681592, 142.893519)"><g><path d="M 18.046875 -17.203125 L 10.546875 0 L 7.390625 0 L -0.125 -17.203125 L 3.34375 -17.203125 L 9.0625 -3.9375 L 14.84375 -17.203125 Z M 18.046875 -17.203125 "/></g></g></g><g fill="#5894dd" fill-opacity="1"><g transform="translate(494.534462, 142.893519)"><g><path d="M 13.46875 -3.984375 L 4.859375 -3.984375 L 3.171875 0 L -0.125 0 L 7.625 -17.203125 L 10.765625 -17.203125 L 18.53125 0 L 15.1875 0 Z M 12.40625 -6.484375 L 9.171875 -14.015625 L 5.953125 -6.484375 Z M 12.40625 -6.484375 "/></g></g></g><g fill="#5894dd" fill-opacity="1"><g transform="translate(516.878958, 142.893519)"><g><path d="M 2.3125 -17.203125 L 5.5 -17.203125 L 5.5 -2.703125 L 14.5 -2.703125 L 14.5 0 L 2.3125 0 Z M 2.3125 -17.203125 "/></g></g></g><g fill="#5894dd" fill-opacity="1"><g transform="translate(535.536233, 142.893519)"><g><path d="M 9.703125 0.25 C 7.328125 0.25 5.472656 -0.414062 4.140625 -1.75 C 2.816406 -3.09375 2.15625 -5.007812 2.15625 -7.5 L 2.15625 -17.203125 L 5.359375 -17.203125 L 5.359375 -7.625 C 5.359375 -4.25 6.816406 -2.5625 9.734375 -2.5625 C 12.628906 -2.5625 14.078125 -4.25 14.078125 -7.625 L 14.078125 -17.203125 L 17.234375 -17.203125 L 17.234375 -7.5 C 17.234375 -5.007812 16.570312 -3.09375 15.25 -1.75 C 13.925781 -0.414062 12.078125 0.25 9.703125 0.25 Z M 9.703125 0.25 "/></g></g></g><g fill="#5894dd" fill-opacity="1"><g transform="translate(558.863981, 142.893519)"><g><path d="M 13.46875 -3.984375 L 4.859375 -3.984375 L 3.171875 0 L -0.125 0 L 7.625 -17.203125 L 10.765625 -17.203125 L 18.53125 0 L 15.1875 0 Z M 12.40625 -6.484375 L 9.171875 -14.015625 L 5.953125 -6.484375 Z M 12.40625 -6.484375 "/></g></g></g><g fill="#5894dd" fill-opacity="1"><g transform="translate(581.208477, 142.893519)"><g><path d="M 5.796875 -14.5 L 0.09375 -14.5 L 0.09375 -17.203125 L 14.703125 -17.203125 L 14.703125 -14.5 L 9 -14.5 L 9 0 L 5.796875 0 Z M 5.796875 -14.5 "/></g></g></g><g fill="#5894dd" fill-opacity="1"><g transform="translate(599.939509, 142.893519)"><g><path d="M 10.34375 0.25 C 8.59375 0.25 7.007812 -0.128906 5.59375 -0.890625 C 4.1875 -1.660156 3.082031 -2.71875 2.28125 -4.0625 C 1.476562 -5.414062 1.078125 -6.929688 1.078125 -8.609375 C 1.078125 -10.273438 1.476562 -11.785156 2.28125 -13.140625 C 3.082031 -14.492188 4.1875 -15.550781 5.59375 -16.3125 C 7.007812 -17.070312 8.59375 -17.453125 10.34375 -17.453125 C 12.101562 -17.453125 13.6875 -17.070312 15.09375 -16.3125 C 16.5 -15.550781 17.601562 -14.5 18.40625 -13.15625 C 19.207031 -11.8125 19.609375 -10.296875 19.609375 -8.609375 C 19.609375 -6.921875 19.207031 -5.40625 18.40625 -4.0625 C 17.601562 -2.71875 16.5 -1.660156 15.09375 -0.890625 C 13.6875 -0.128906 12.101562 0.25 10.34375 0.25 Z M 10.34375 -2.5625 C 11.488281 -2.5625 12.519531 -2.816406 13.4375 -3.328125 C 14.363281 -3.847656 15.085938 -4.566406 15.609375 -5.484375 C 16.128906 -6.410156 16.390625 -7.453125 16.390625 -8.609375 C 16.390625 -9.753906 16.128906 -10.785156 15.609375 -11.703125 C 15.085938 -12.628906 14.363281 -13.351562 13.4375 -13.875 C 12.519531 -14.394531 11.488281 -14.65625 10.34375 -14.65625 C 9.195312 -14.65625 8.164062 -14.394531 7.25 -13.875 C 6.332031 -13.351562 5.609375 -12.628906 5.078125 -11.703125 C 4.554688 -10.785156 4.296875 -9.753906 4.296875 -8.609375 C 4.296875 -7.453125 4.554688 -6.410156 5.078125 -5.484375 C 5.609375 -4.566406 6.332031 -3.847656 7.25 -3.328125 C 8.164062 -2.816406 9.195312 -2.5625 10.34375 -2.5625 Z M 10.34375 -2.5625 "/></g></g></g><g fill="#5894dd" fill-opacity="1"><g transform="translate(624.57008, 142.893519)"><g><path d="M 13.5625 0 L 10.046875 -5.03125 C 9.898438 -5.019531 9.679688 -5.015625 9.390625 -5.015625 L 5.5 -5.015625 L 5.5 0 L 2.3125 0 L 2.3125 -17.203125 L 9.390625 -17.203125 C 10.878906 -17.203125 12.175781 -16.957031 13.28125 -16.46875 C 14.382812 -15.976562 15.234375 -15.273438 15.828125 -14.359375 C 16.421875 -13.441406 16.71875 -12.347656 16.71875 -11.078125 C 16.71875 -9.785156 16.398438 -8.671875 15.765625 -7.734375 C 15.140625 -6.804688 14.234375 -6.113281 13.046875 -5.65625 L 17.015625 0 Z M 13.5 -11.078125 C 13.5 -12.179688 13.132812 -13.023438 12.40625 -13.609375 C 11.6875 -14.203125 10.628906 -14.5 9.234375 -14.5 L 5.5 -14.5 L 5.5 -7.640625 L 9.234375 -7.640625 C 10.628906 -7.640625 11.6875 -7.9375 12.40625 -8.53125 C 13.132812 -9.132812 13.5 -9.984375 13.5 -11.078125 Z M 13.5 -11.078125 "/></g></g></g></svg>